<svg width="427" height="527" viewBox="0 0 427 527" fill="none" xmlns="http://www.w3.org/2000/svg">
<g filter="url(#filter0_dii_21_991)">
<rect x="3.24536" y="10" width="400.317" height="500.396" fill="#E6E3DD"/>
<rect x="1.74536" y="8.5" width="403.317" height="503.396" stroke="url(#paint0_linear_21_991)" stroke-width="3"/>
</g>
<rect x="30" y="36" width="347" height="448" rx="5" fill="url(#paint1_linear_21_991)"/>
<g filter="url(#filter1_d_21_991)">
<path fill-rule="evenodd" clip-rule="evenodd" d="M250.857 196.032C254.534 198.86 259.225 202.703 262.817 205.642C257.23 211.23 255.518 217.078 255.518 224.932C248.06 224.932 233.747 233.944 225.374 238.606C229.414 228.972 235.319 214.367 233.765 207.219C240.93 204.941 246.817 201.625 250.857 196.032ZM254.896 201.315C251.578 205.642 250.235 208.151 246.195 212.191C242.155 213.434 241.534 214.056 240.912 218.717C239.048 221.825 231.833 229.448 229.414 233.323C232.522 230.526 239.669 223.068 242.466 220.582C247.127 218.717 247.438 217.785 247.438 213.123C249.303 211.259 253.653 205.044 255.829 201.936C255.775 201.893 254.896 201.315 254.896 201.315Z" fill="black"/>
<circle cx="244.331" cy="216.231" r="2.1753" fill="black"/>
</g>
<g filter="url(#filter2_d_21_991)">
<rect x="250.92" y="193.899" width="63.8165" height="16.965" rx="1" transform="rotate(-51.1723 250.92 193.899)" fill="black"/>
<line x1="292.506" y1="141.804" x2="305.557" y2="152.37" stroke="black" stroke-width="2"/>
<rect x="293.741" y="140.711" width="40.6707" height="16.965" rx="1" transform="rotate(-51.1723 293.741 140.711)" fill="black"/>
<path d="M317.907 146.375C316.574 145.302 316.363 143.353 317.436 142.02L340.686 113.132C340.88 112.891 340.951 112.572 340.879 112.271L340.514 110.757C340.262 109.709 341.617 109.058 342.277 109.91L346.393 115.227C346.678 115.595 346.671 116.112 346.376 116.473L322.244 145.925C321.167 147.24 319.231 147.44 317.907 146.375Z" fill="black"/>
<path d="M320.792 107.405C320.612 107.26 320.584 106.996 320.729 106.816L328.532 97.1196C331.47 93.47 336.809 92.8926 340.459 95.8298C344.109 98.7671 344.686 104.107 341.749 107.756L333.945 117.453C333.8 117.633 333.536 117.661 333.356 117.516L320.792 107.405Z" fill="black"/>
</g>
<path fill-rule="evenodd" clip-rule="evenodd" d="M192.074 210.331C201.764 208.768 220.972 210.635 231.322 228.198C221.161 210.956 201.651 210.336 192.074 211.88C176.354 214.416 161.048 226.971 161.048 249.793C161.048 259.351 166.196 278.129 187.151 284.908C194.376 287.246 205.959 287.049 218.681 284.287C231.393 281.527 244.657 277.167 254.712 269.742C244.567 277.234 231.452 282.969 218.681 285.741C205.921 288.511 193.815 288.835 186.434 286.447C165.126 279.553 159.494 259.502 159.494 249.793C159.494 226.623 176.097 212.907 192.074 210.331Z" fill="url(#paint2_linear_21_991)"/>
<circle cx="206.107" cy="147.554" r="41.006" stroke="black" stroke-width="5"/>
<circle cx="255.829" cy="112.127" r="8.68725" stroke="black" stroke-width="5"/>
<circle cx="205.797" cy="147.865" r="23.3068" fill="black"/>
<path fill-rule="evenodd" clip-rule="evenodd" d="M198.028 296.717C202.689 316.295 213.136 360.282 220.402 386.837L232.183 377.514L243.969 368.502L269.191 349.857L266.705 269.06C266.705 260.359 284.161 248.389 295.606 236.12C306.805 224.113 316.547 205.117 316.116 177.697C315.24 122.094 266.697 85.7131 220.672 85.7131C193.929 85.7131 174.484 96.9908 161.616 110.697C148.646 124.512 140.807 146.226 140.807 177.697C140.807 185.155 115.367 216.853 115.677 221.514C115.367 225.243 135.255 226.138 135.255 236.12C135.566 242.335 131.837 246.444 131.837 249.171C131.837 252.279 145.821 254.454 145.821 258.183C145.821 261.912 136.498 264.709 136.498 267.195C136.498 269.681 145.821 271.235 145.821 279.315C145.821 283.406 143.335 290.813 143.335 294.231C143.335 297.438 144.578 298.582 146.131 300.135C147.375 301.378 151.725 302.932 155.765 303.243C163.511 303.839 181.873 299.824 198.028 296.717ZM217.295 390.566C216.386 387.744 215.323 384.09 214.165 379.884C207.8 356.764 198.578 316.963 196.474 306.972C192.245 307.785 188.697 308.535 185.451 309.221C160.426 314.507 147.996 315.673 139.606 308.837C135.877 305.108 133.618 301.224 133.08 294.231C132.769 290.191 136.187 283.665 135.255 279.625C134.633 278.072 124.379 276.518 124.379 268.127C124.379 265.331 128.418 260.048 128.418 260.048C128.418 260.048 119.717 256.008 120.028 250.414C120.373 244.199 124.182 242.143 124.379 238.606C124.689 233.012 107.908 237.984 103.868 224C102.625 217.785 130.905 179.251 130.904 175.833C130.902 109.641 163.223 78.8765 220.672 78.8765C271.988 78.8765 318.207 115.857 319.181 177.697C319.81 217.605 299.067 237.195 284.275 251.165C276.145 258.842 269.813 264.823 269.813 271.546L269.191 349.857C269.191 349.857 217.295 387.469 217.295 390.566Z" fill="url(#paint3_linear_21_991)"/>
<path d="M115.285 461V460.49H117.655L124.705 440.9H120.985V440.39H129.745V440.9H125.845L132.955 460.49H135.385V461H129.865V460.49H132.385L129.505 452.45L121.105 452.42L118.225 460.49H120.805V461H115.285ZM129.295 451.94L125.275 440.9L121.285 451.91L129.295 451.94ZM137.483 461V460.49H138.983C139.543 460.49 139.823 460.2 139.823 459.62V441.77C139.823 441.19 139.553 440.9 139.013 440.9H137.483V440.39H145.973C148.053 440.39 149.603 440.8 150.623 441.62C151.663 442.44 152.183 443.62 152.183 445.16C152.183 446.26 151.873 447.21 151.253 448.01C150.633 448.81 149.673 449.36 148.373 449.66C149.933 450.02 151.143 450.69 152.003 451.67C152.863 452.65 153.293 453.82 153.293 455.18C153.293 456.26 153.053 457.24 152.573 458.12C152.113 459 151.353 459.7 150.293 460.22C149.233 460.74 147.793 461 145.973 461H137.483ZM140.363 449.42H145.973C147.913 449.42 149.343 449.02 150.263 448.22C151.183 447.42 151.643 446.4 151.643 445.16C151.643 442.32 149.753 440.9 145.973 440.9H140.363V449.42ZM140.363 460.49H145.973C147.673 460.49 149.013 460.25 149.993 459.77C150.993 459.29 151.703 458.65 152.123 457.85C152.543 457.05 152.753 456.16 152.753 455.18C152.753 453.64 152.153 452.38 150.953 451.4C149.753 450.42 148.093 449.93 145.973 449.93H140.363V460.49ZM166.601 461.51C164.581 461.51 162.791 461.05 161.231 460.13C159.691 459.21 158.481 457.93 157.601 456.29C156.721 454.65 156.281 452.75 156.281 450.59C156.281 448.49 156.721 446.64 157.601 445.04C158.481 443.42 159.691 442.16 161.231 441.26C162.791 440.34 164.581 439.88 166.601 439.88C168.601 439.88 170.371 440.34 171.911 441.26C173.451 442.16 174.651 443.42 175.511 445.04C176.391 446.64 176.831 448.49 176.831 450.59C176.831 452.75 176.391 454.65 175.511 456.29C174.651 457.93 173.451 459.21 171.911 460.13C170.371 461.05 168.601 461.51 166.601 461.51ZM166.601 461C168.501 460.98 170.181 460.53 171.641 459.65C173.101 458.77 174.241 457.55 175.061 455.99C175.881 454.43 176.291 452.63 176.291 450.59C176.291 448.59 175.881 446.83 175.061 445.31C174.241 443.77 173.101 442.57 171.641 441.71C170.181 440.83 168.501 440.39 166.601 440.39C164.701 440.39 163.011 440.83 161.531 441.71C160.051 442.57 158.891 443.77 158.051 445.31C157.231 446.83 156.821 448.59 156.821 450.59C156.821 452.63 157.231 454.43 158.051 455.99C158.891 457.55 160.051 458.77 161.531 459.65C163.011 460.53 164.701 460.98 166.601 461ZM189.151 461.54C186.831 461.54 184.991 460.81 183.631 459.35C182.271 457.89 181.591 455.72 181.591 452.84V440.9H179.371V440.39H184.351V440.9H182.971C182.651 440.9 182.431 440.97 182.311 441.11C182.191 441.25 182.131 441.47 182.131 441.77V452.84C182.131 455.54 182.761 457.57 184.021 458.93C185.281 460.29 186.991 460.98 189.151 461C191.311 461.02 193.021 460.35 194.281 458.99C195.561 457.61 196.201 455.56 196.201 452.84V440.9H193.981V440.39H199.021V440.9H197.581C197.261 440.9 197.041 440.97 196.921 441.11C196.801 441.25 196.741 441.47 196.741 441.77V452.84C196.741 455.72 196.051 457.89 194.671 459.35C193.311 460.81 191.471 461.54 189.151 461.54ZM207.461 461V460.49H209.651C209.971 460.49 210.191 460.42 210.311 460.28C210.431 460.14 210.491 459.92 210.491 459.62V440.9H202.271V442.88H201.731V440.39H219.791V442.88H219.251V440.9H211.871C211.551 440.9 211.331 440.97 211.211 441.11C211.091 441.25 211.031 441.47 211.031 441.77V460.49H213.821V461H207.461ZM222.976 461V460.49H224.296C224.856 460.49 225.136 460.2 225.136 459.62V441.77C225.136 441.19 224.866 440.9 224.326 440.9H222.796V440.39H236.866V442.88H236.326V440.9H225.676V449.54H233.776V447.92H234.316V451.67H233.776V450.05H225.676V460.49H236.326V458.78H236.866V461H222.976ZM249.185 461V460.49H250.565C250.885 460.49 251.105 460.42 251.225 460.28C251.345 460.14 251.405 459.92 251.405 459.62V440.9H249.185V440.39H254.165V440.9H251.945L261.065 456.8L270.215 440.9H267.995V440.39H273.035V440.9H270.755V460.49H273.035V461H267.995V460.49H269.375C269.695 460.49 269.915 460.42 270.035 460.28C270.155 460.14 270.215 459.92 270.215 459.62V441.98L261.335 457.46H260.795L251.945 442.01V460.49H254.225V461H249.185ZM275.915 461V460.49H277.235C277.795 460.49 278.075 460.2 278.075 459.62V441.77C278.075 441.19 277.805 440.9 277.265 440.9H275.735V440.39H289.805V442.88H289.265V440.9H278.615V449.54H286.715V447.92H287.255V451.67H286.715V450.05H278.615V460.49H289.265V458.78H289.805V461H275.915Z" fill="black"/>
<defs>
<filter id="filter0_dii_21_991" x="-0.754639" y="0" width="427.317" height="526.396" filterUnits="userSpaceOnUse" color-interpolation-filters="sRGB">
<feFlood flood-opacity="0" result="BackgroundImageFix"/>
<feColorMatrix in="SourceAlpha" type="matrix" values="0 0 0 0 0 0 0 0 0 0 0 0 0 0 0 0 0 0 127 0" result="hardAlpha"/>
<feOffset dx="10" dy="3"/>
<feGaussianBlur stdDeviation="5"/>
<feColorMatrix type="matrix" values="0 0 0 0 0.74902 0 0 0 0 0.717647 0 0 0 0 0.690196 0 0 0 1 0"/>
<feBlend mode="normal" in2="BackgroundImageFix" result="effect1_dropShadow_21_991"/>
<feBlend mode="normal" in="SourceGraphic" in2="effect1_dropShadow_21_991" result="shape"/>
<feColorMatrix in="SourceAlpha" type="matrix" values="0 0 0 0 0 0 0 0 0 0 0 0 0 0 0 0 0 0 127 0" result="hardAlpha"/>
<feOffset dx="1" dy="1"/>
<feGaussianBlur stdDeviation="5"/>
<feComposite in2="hardAlpha" operator="arithmetic" k2="-1" k3="1"/>
<feColorMatrix type="matrix" values="0 0 0 0 0 0 0 0 0 0 0 0 0 0 0 0 0 0 0.5 0"/>
<feBlend mode="normal" in2="shape" result="effect2_innerShadow_21_991"/>
<feColorMatrix in="SourceAlpha" type="matrix" values="0 0 0 0 0 0 0 0 0 0 0 0 0 0 0 0 0 0 127 0" result="hardAlpha"/>
<feOffset dx="-1" dy="-1"/>
<feGaussianBlur stdDeviation="5"/>
<feComposite in2="hardAlpha" operator="arithmetic" k2="-1" k3="1"/>
<feColorMatrix type="matrix" values="0 0 0 0 0 0 0 0 0 0 0 0 0 0 0 0 0 0 0.3 0"/>
<feBlend mode="normal" in2="effect2_innerShadow_21_991" result="effect3_innerShadow_21_991"/>
</filter>
<filter id="filter1_d_21_991" x="221.374" y="196.032" width="45.4426" height="50.5737" filterUnits="userSpaceOnUse" color-interpolation-filters="sRGB">
<feFlood flood-opacity="0" result="BackgroundImageFix"/>
<feColorMatrix in="SourceAlpha" type="matrix" values="0 0 0 0 0 0 0 0 0 0 0 0 0 0 0 0 0 0 127 0" result="hardAlpha"/>
<feOffset dy="4"/>
<feGaussianBlur stdDeviation="2"/>
<feComposite in2="hardAlpha" operator="out"/>
<feColorMatrix type="matrix" values="0 0 0 0 0 0 0 0 0 0 0 0 0 0 0 0 0 0 0.25 0"/>
<feBlend mode="normal" in2="BackgroundImageFix" result="effect1_dropShadow_21_991"/>
<feBlend mode="normal" in="SourceGraphic" in2="effect1_dropShadow_21_991" result="shape"/>
</filter>
<filter id="filter2_d_21_991" x="247.326" y="93.9552" width="103.276" height="118.174" filterUnits="userSpaceOnUse" color-interpolation-filters="sRGB">
<feFlood flood-opacity="0" result="BackgroundImageFix"/>
<feColorMatrix in="SourceAlpha" type="matrix" values="0 0 0 0 0 0 0 0 0 0 0 0 0 0 0 0 0 0 127 0" result="hardAlpha"/>
<feOffset dy="4"/>
<feGaussianBlur stdDeviation="2"/>
<feComposite in2="hardAlpha" operator="out"/>
<feColorMatrix type="matrix" values="0 0 0 0 0 0 0 0 0 0 0 0 0 0 0 0 0 0 0.25 0"/>
<feBlend mode="normal" in2="BackgroundImageFix" result="effect1_dropShadow_21_991"/>
<feBlend mode="normal" in="SourceGraphic" in2="effect1_dropShadow_21_991" result="shape"/>
</filter>
<linearGradient id="paint0_linear_21_991" x1="4.13495" y1="259.558" x2="403.562" y2="259.558" gradientUnits="userSpaceOnUse">
<stop stop-color="#8B5E35"/>
<stop offset="1" stop-color="#734924"/>
</linearGradient>
<linearGradient id="paint1_linear_21_991" x1="30.4471" y1="35.7659" x2="387.797" y2="474.86" gradientUnits="userSpaceOnUse">
<stop stop-color="#C7B397"/>
<stop offset="1" stop-color="#B69B7E"/>
</linearGradient>
<linearGradient id="paint2_linear_21_991" x1="161.669" y1="263.466" x2="235.629" y2="234.876" gradientUnits="userSpaceOnUse">
<stop/>
<stop offset="0.92" stop-opacity="0.98"/>
<stop offset="1" stop-opacity="0"/>
</linearGradient>
<linearGradient id="paint3_linear_21_991" x1="227.239" y1="294.853" x2="264.841" y2="353.275" gradientUnits="userSpaceOnUse">
<stop/>
<stop offset="0.977235"/>
<stop offset="1" stop-color="#666666" stop-opacity="0"/>
</linearGradient>
</defs>
</svg>
