<svg width="402" height="277" viewBox="0 0 402 277" fill="none" xmlns="http://www.w3.org/2000/svg">
<g filter="url(#filter0_dii_21_999)">
<rect x="3.32281" y="10.204" width="375.297" height="250.198" fill="url(#paint0_linear_21_999)"/>
<rect x="1.82281" y="8.70404" width="378.297" height="253.198" stroke="url(#paint1_linear_21_999)" stroke-width="3"/>
</g>
<g filter="url(#filter1_ii_21_999)">
<rect x="9.57776" y="16.459" width="362.787" height="237.688" rx="2" fill="#D9D1CD"/>
</g>
<path d="M78.4857 229V228.49H80.8557L87.9057 208.9H84.1857V208.39H92.9457V208.9H89.0457L96.1557 228.49H98.5857V229H93.0657V228.49H95.5857L92.7057 220.45L84.3057 220.42L81.4257 228.49H84.0057V229H78.4857ZM92.4957 219.94L88.4757 208.9L84.4857 219.91L92.4957 219.94ZM110.555 229.51C108.535 229.51 106.745 229.04 105.185 228.1C103.645 227.16 102.435 225.87 101.555 224.23C100.675 222.57 100.235 220.69 100.235 218.59C100.235 217.01 100.515 215.57 101.075 214.27C101.635 212.95 102.395 211.82 103.355 210.88C104.315 209.92 105.415 209.18 106.655 208.66C107.895 208.14 109.195 207.88 110.555 207.88C112.115 207.88 113.555 208.17 114.875 208.75C116.195 209.31 117.185 210.1 117.845 211.12C118.125 211.56 118.295 211.92 118.355 212.2C118.415 212.48 118.395 212.7 118.295 212.86C118.155 213.1 117.935 213.19 117.635 213.13C117.355 213.05 117.215 212.85 117.215 212.53C117.215 212.37 117.255 212.24 117.335 212.14C117.415 212.04 117.465 211.93 117.485 211.81C117.525 211.69 117.465 211.52 117.305 211.3C116.685 210.38 115.765 209.67 114.545 209.17C113.325 208.65 111.995 208.39 110.555 208.39C109.275 208.39 108.045 208.64 106.865 209.14C105.705 209.64 104.665 210.34 103.745 211.24C102.825 212.14 102.095 213.22 101.555 214.48C101.035 215.72 100.775 217.09 100.775 218.59C100.775 220.59 101.185 222.37 102.005 223.93C102.845 225.49 104.005 226.72 105.485 227.62C106.965 228.52 108.655 228.98 110.555 229C112.035 229.02 113.385 228.75 114.605 228.19C115.825 227.63 116.865 226.86 117.725 225.88L118.145 226.24C117.225 227.28 116.115 228.09 114.815 228.67C113.535 229.23 112.115 229.51 110.555 229.51ZM120.812 229V228.49H122.252C122.572 228.49 122.792 228.42 122.912 228.28C123.032 228.14 123.092 227.92 123.092 227.62V208.9H120.872V208.39H125.852V208.9H124.472C124.152 208.9 123.932 208.97 123.812 209.11C123.692 209.25 123.632 209.47 123.632 209.77V217.51L137.492 217.54V208.9H135.212V208.39H140.252V208.9H138.872C138.552 208.9 138.332 208.97 138.212 209.11C138.092 209.25 138.032 209.47 138.032 209.77V228.49H140.252V229H135.212V228.49H136.652C136.972 228.49 137.192 228.42 137.312 228.28C137.432 228.14 137.492 227.92 137.492 227.62V218.05L123.632 218.02V228.49H125.852V229H120.812ZM143.253 229V228.49H146.343C146.663 228.49 146.883 228.42 147.003 228.28C147.123 228.14 147.183 227.92 147.183 227.62V208.9H143.283V208.39H151.593V208.9H148.563C148.243 208.9 148.023 208.97 147.903 209.11C147.783 209.25 147.723 209.47 147.723 209.77V228.49H151.593V229H143.253ZM155.064 229V228.49H156.384C156.944 228.49 157.224 228.2 157.224 227.62V209.77C157.224 209.19 156.954 208.9 156.414 208.9H154.884V208.39H168.954V210.88H168.414V208.9H157.764V217.54H165.864V215.92H166.404V219.67H165.864V218.05H157.764V228.49H168.414V226.78H168.954V229H155.064ZM180.58 229L172.45 208.9H170.17V208.39H175.24V208.9H173.02L180.85 228.19L188.68 208.9H186.46V208.39H191.53V208.9H189.25L181.12 229H180.58ZM193.824 229V228.49H195.144C195.704 228.49 195.984 228.2 195.984 227.62V209.77C195.984 209.19 195.714 208.9 195.174 208.9H193.644V208.39H207.714V210.88H207.174V208.9H196.524V217.54H204.624V215.92H205.164V219.67H204.624V218.05H196.524V228.49H207.174V226.78H207.714V229H193.824ZM211.01 229V228.49H212.39C212.71 228.49 212.93 228.42 213.05 228.28C213.17 228.14 213.23 227.92 213.23 227.62V208.9H211.01V208.39H215.99V208.9H213.77L222.89 224.8L232.04 208.9H229.82V208.39H234.86V208.9H232.58V228.49H234.86V229H229.82V228.49H231.2C231.52 228.49 231.74 228.42 231.86 228.28C231.98 228.14 232.04 227.92 232.04 227.62V209.98L223.16 225.46H222.62L213.77 210.01V228.49H216.05V229H211.01ZM237.74 229V228.49H239.06C239.62 228.49 239.9 228.2 239.9 227.62V209.77C239.9 209.19 239.63 208.9 239.09 208.9H237.56V208.39H251.63V210.88H251.09V208.9H240.44V217.54H248.54V215.92H249.08V219.67H248.54V218.05H240.44V228.49H251.09V226.78H251.63V229H237.74ZM254.34 229V228.49H255.78C256.1 228.49 256.32 228.42 256.44 228.28C256.56 228.14 256.62 227.92 256.62 227.62V208.9H254.4V208.39H259.38V208.9H257.28L271.02 227.74V208.9H268.74V208.39H273.78V208.9H272.4C272.08 208.9 271.86 208.97 271.74 209.11C271.62 209.25 271.56 209.47 271.56 209.77V228.49H273.78V229H268.74V228.49H270.9L257.16 209.65V228.49H259.38V229H254.34ZM282.196 229V228.49H284.386C284.706 228.49 284.926 228.42 285.046 228.28C285.166 228.14 285.226 227.92 285.226 227.62V208.9H277.006V210.88H276.466V208.39H294.526V210.88H293.986V208.9H286.606C286.286 208.9 286.066 208.97 285.946 209.11C285.826 209.25 285.766 209.47 285.766 209.77V228.49H288.556V229H282.196ZM303.822 229.51C302.682 229.51 301.612 229.3 300.612 228.88C299.632 228.46 298.812 227.86 298.152 227.08C297.512 226.28 297.112 225.33 296.952 224.23C296.892 223.83 296.892 223.52 296.952 223.3C297.012 223.08 297.092 222.93 297.192 222.85C297.392 222.67 297.622 222.65 297.882 222.79C298.162 222.91 298.242 223.14 298.122 223.48C298.062 223.64 297.972 223.75 297.852 223.81C297.752 223.87 297.662 223.95 297.582 224.05C297.522 224.15 297.522 224.35 297.582 224.65C297.762 225.57 298.152 226.36 298.752 227.02C299.372 227.66 300.122 228.15 301.002 228.49C301.902 228.81 302.842 228.98 303.822 229C304.982 229 306.012 228.8 306.912 228.4C307.812 227.98 308.522 227.4 309.042 226.66C309.562 225.9 309.812 225.02 309.792 224.02C309.772 222.96 309.392 222.02 308.652 221.2C307.932 220.38 306.962 219.68 305.742 219.1C305.182 218.82 304.612 218.56 304.032 218.32C303.452 218.06 302.842 217.8 302.202 217.54C301.822 217.38 301.382 217.18 300.882 216.94C300.382 216.7 299.892 216.4 299.412 216.04C298.932 215.66 298.522 215.21 298.182 214.69C297.862 214.15 297.692 213.51 297.672 212.77C297.632 211.37 298.112 210.21 299.112 209.29C300.132 208.35 301.552 207.88 303.372 207.88C304.852 207.88 306.102 208.21 307.122 208.87C308.162 209.53 308.872 210.41 309.252 211.51C309.412 212.01 309.472 212.4 309.432 212.68C309.392 212.96 309.312 213.15 309.192 213.25C308.992 213.41 308.772 213.43 308.532 213.31C308.292 213.17 308.202 212.95 308.262 212.65C308.322 212.49 308.402 212.38 308.502 212.32C308.622 212.24 308.712 212.15 308.772 212.05C308.832 211.95 308.812 211.77 308.712 211.51C308.372 210.59 307.732 209.84 306.792 209.26C305.872 208.68 304.732 208.39 303.372 208.39C301.732 208.39 300.452 208.8 299.532 209.62C298.612 210.42 298.162 211.47 298.182 212.77C298.202 213.43 298.362 214 298.662 214.48C298.982 214.94 299.362 215.34 299.802 215.68C300.262 216 300.722 216.27 301.182 216.49C301.642 216.71 302.022 216.89 302.322 217.03C302.962 217.33 303.552 217.59 304.092 217.81C304.632 218.01 305.182 218.25 305.742 218.53C307.162 219.21 308.282 220.01 309.102 220.93C309.922 221.85 310.322 222.88 310.302 224.02C310.302 225.14 310.012 226.12 309.432 226.96C308.872 227.78 308.102 228.41 307.122 228.85C306.162 229.29 305.062 229.51 303.822 229.51Z" fill="black"/>
<g filter="url(#filter2_d_21_999)">
<path fill-rule="evenodd" clip-rule="evenodd" d="M191 128C175.169 128 168 156.519 168 156.519L168 194L191 177.704L191 128Z" fill="url(#paint2_linear_21_999)"/>
<path fill-rule="evenodd" clip-rule="evenodd" d="M191 177.704L214 194L214 156.519C214 156.519 206.831 128 191 128C191 128 191 128 191 128L191 177.704Z" fill="url(#paint3_linear_21_999)"/>
</g>
<g filter="url(#filter3_d_21_999)">
<path fill-rule="evenodd" clip-rule="evenodd" d="M191 124.71C191 124.71 191 124.71 191 124.71C215.091 124.71 226 101.07 226 101.07V70H191V124.71Z" fill="url(#paint4_linear_21_999)"/>
<path fill-rule="evenodd" clip-rule="evenodd" d="M191 70H156V101.07C156 101.07 166.909 124.71 191 124.71V70Z" fill="url(#paint5_linear_21_999)"/>
</g>
<g filter="url(#filter4_i_21_999)">
<path fill-rule="evenodd" clip-rule="evenodd" d="M190.5 51.321L171 37L171 69.9383C171 69.9383 177.078 95 190.5 95L190.5 51.321Z" fill="url(#paint6_linear_21_999)"/>
</g>
<g filter="url(#filter5_i_21_999)">
<path fill-rule="evenodd" clip-rule="evenodd" d="M190.5 95C203.922 95 210 69.9383 210 69.9383L210 37L190.5 51.321L190.5 95Z" fill="url(#paint7_linear_21_999)"/>
</g>
<g filter="url(#filter6_ii_21_999)">
<ellipse cx="191" cy="113.5" rx="26" ry="26.5" fill="url(#paint8_linear_21_999)"/>
</g>
<path d="M216.5 113.5C216.5 127.868 205.074 139.5 191 139.5C176.926 139.5 165.5 127.868 165.5 113.5C165.5 99.1316 176.926 87.5 191 87.5C205.074 87.5 216.5 99.1316 216.5 113.5Z" stroke="url(#paint9_linear_21_999)"/>
<circle cx="190.5" cy="113.5" r="19.75" fill="#E1B878" stroke="#FEE3B8" stroke-width="0.5"/>
<path d="M184.146 124V121.78H189.996V104.92H189.786L184.506 109.84L183.036 108.25L188.586 103.06H192.516V121.78H197.916V124H184.146Z" fill="#FDEACD"/>
<circle cx="190.5" cy="113.5" r="18.35" transform="rotate(82.8812 190.5 113.5)" stroke="url(#paint10_linear_21_999)" stroke-width="0.3" stroke-dasharray="5 1 10 1"/>
<defs>
<filter id="filter0_dii_21_999" x="-0.677185" y="0.204041" width="402.297" height="276.198" filterUnits="userSpaceOnUse" color-interpolation-filters="sRGB">
<feFlood flood-opacity="0" result="BackgroundImageFix"/>
<feColorMatrix in="SourceAlpha" type="matrix" values="0 0 0 0 0 0 0 0 0 0 0 0 0 0 0 0 0 0 127 0" result="hardAlpha"/>
<feOffset dx="10" dy="3"/>
<feGaussianBlur stdDeviation="5"/>
<feColorMatrix type="matrix" values="0 0 0 0 0.74902 0 0 0 0 0.717647 0 0 0 0 0.690196 0 0 0 1 0"/>
<feBlend mode="normal" in2="BackgroundImageFix" result="effect1_dropShadow_21_999"/>
<feBlend mode="normal" in="SourceGraphic" in2="effect1_dropShadow_21_999" result="shape"/>
<feColorMatrix in="SourceAlpha" type="matrix" values="0 0 0 0 0 0 0 0 0 0 0 0 0 0 0 0 0 0 127 0" result="hardAlpha"/>
<feOffset dx="1" dy="1"/>
<feGaussianBlur stdDeviation="5"/>
<feComposite in2="hardAlpha" operator="arithmetic" k2="-1" k3="1"/>
<feColorMatrix type="matrix" values="0 0 0 0 0 0 0 0 0 0 0 0 0 0 0 0 0 0 0.5 0"/>
<feBlend mode="normal" in2="shape" result="effect2_innerShadow_21_999"/>
<feColorMatrix in="SourceAlpha" type="matrix" values="0 0 0 0 0 0 0 0 0 0 0 0 0 0 0 0 0 0 127 0" result="hardAlpha"/>
<feOffset dx="-1" dy="-1"/>
<feGaussianBlur stdDeviation="5"/>
<feComposite in2="hardAlpha" operator="arithmetic" k2="-1" k3="1"/>
<feColorMatrix type="matrix" values="0 0 0 0 0 0 0 0 0 0 0 0 0 0 0 0 0 0 0.3 0"/>
<feBlend mode="normal" in2="effect2_innerShadow_21_999" result="effect3_innerShadow_21_999"/>
</filter>
<filter id="filter1_ii_21_999" x="9.57776" y="16.459" width="362.787" height="237.688" filterUnits="userSpaceOnUse" color-interpolation-filters="sRGB">
<feFlood flood-opacity="0" result="BackgroundImageFix"/>
<feBlend mode="normal" in="SourceGraphic" in2="BackgroundImageFix" result="shape"/>
<feColorMatrix in="SourceAlpha" type="matrix" values="0 0 0 0 0 0 0 0 0 0 0 0 0 0 0 0 0 0 127 0" result="hardAlpha"/>
<feOffset dx="3" dy="3"/>
<feComposite in2="hardAlpha" operator="arithmetic" k2="-1" k3="1"/>
<feColorMatrix type="matrix" values="0 0 0 0 0 0 0 0 0 0 0 0 0 0 0 0 0 0 0.1 0"/>
<feBlend mode="normal" in2="shape" result="effect1_innerShadow_21_999"/>
<feColorMatrix in="SourceAlpha" type="matrix" values="0 0 0 0 0 0 0 0 0 0 0 0 0 0 0 0 0 0 127 0" result="hardAlpha"/>
<feOffset dx="-3" dy="-3"/>
<feComposite in2="hardAlpha" operator="arithmetic" k2="-1" k3="1"/>
<feColorMatrix type="matrix" values="0 0 0 0 0 0 0 0 0 0 0 0 0 0 0 0 0 0 0.1 0"/>
<feBlend mode="normal" in2="effect1_innerShadow_21_999" result="effect2_innerShadow_21_999"/>
</filter>
<filter id="filter2_d_21_999" x="164" y="128" width="54" height="74" filterUnits="userSpaceOnUse" color-interpolation-filters="sRGB">
<feFlood flood-opacity="0" result="BackgroundImageFix"/>
<feColorMatrix in="SourceAlpha" type="matrix" values="0 0 0 0 0 0 0 0 0 0 0 0 0 0 0 0 0 0 127 0" result="hardAlpha"/>
<feOffset dy="4"/>
<feGaussianBlur stdDeviation="2"/>
<feComposite in2="hardAlpha" operator="out"/>
<feColorMatrix type="matrix" values="0 0 0 0 0 0 0 0 0 0 0 0 0 0 0 0 0 0 0.25 0"/>
<feBlend mode="normal" in2="BackgroundImageFix" result="effect1_dropShadow_21_999"/>
<feBlend mode="normal" in="SourceGraphic" in2="effect1_dropShadow_21_999" result="shape"/>
</filter>
<filter id="filter3_d_21_999" x="152" y="70" width="78" height="62.7097" filterUnits="userSpaceOnUse" color-interpolation-filters="sRGB">
<feFlood flood-opacity="0" result="BackgroundImageFix"/>
<feColorMatrix in="SourceAlpha" type="matrix" values="0 0 0 0 0 0 0 0 0 0 0 0 0 0 0 0 0 0 127 0" result="hardAlpha"/>
<feOffset dy="4"/>
<feGaussianBlur stdDeviation="2"/>
<feComposite in2="hardAlpha" operator="out"/>
<feColorMatrix type="matrix" values="0 0 0 0 0 0 0 0 0 0 0 0 0 0 0 0 0 0 0.25 0"/>
<feBlend mode="normal" in2="BackgroundImageFix" result="effect1_dropShadow_21_999"/>
<feBlend mode="normal" in="SourceGraphic" in2="effect1_dropShadow_21_999" result="shape"/>
</filter>
<filter id="filter4_i_21_999" x="170" y="37" width="20.5" height="58" filterUnits="userSpaceOnUse" color-interpolation-filters="sRGB">
<feFlood flood-opacity="0" result="BackgroundImageFix"/>
<feBlend mode="normal" in="SourceGraphic" in2="BackgroundImageFix" result="shape"/>
<feColorMatrix in="SourceAlpha" type="matrix" values="0 0 0 0 0 0 0 0 0 0 0 0 0 0 0 0 0 0 127 0" result="hardAlpha"/>
<feOffset dx="-1"/>
<feGaussianBlur stdDeviation="2"/>
<feComposite in2="hardAlpha" operator="arithmetic" k2="-1" k3="1"/>
<feColorMatrix type="matrix" values="0 0 0 0 0 0 0 0 0 0 0 0 0 0 0 0 0 0 0.25 0"/>
<feBlend mode="normal" in2="shape" result="effect1_innerShadow_21_999"/>
</filter>
<filter id="filter5_i_21_999" x="190.5" y="37" width="20.5" height="58" filterUnits="userSpaceOnUse" color-interpolation-filters="sRGB">
<feFlood flood-opacity="0" result="BackgroundImageFix"/>
<feBlend mode="normal" in="SourceGraphic" in2="BackgroundImageFix" result="shape"/>
<feColorMatrix in="SourceAlpha" type="matrix" values="0 0 0 0 0 0 0 0 0 0 0 0 0 0 0 0 0 0 127 0" result="hardAlpha"/>
<feOffset dx="1"/>
<feGaussianBlur stdDeviation="2"/>
<feComposite in2="hardAlpha" operator="arithmetic" k2="-1" k3="1"/>
<feColorMatrix type="matrix" values="0 0 0 0 0 0 0 0 0 0 0 0 0 0 0 0 0 0 0.25 0"/>
<feBlend mode="normal" in2="shape" result="effect1_innerShadow_21_999"/>
</filter>
<filter id="filter6_ii_21_999" x="162" y="84" width="58" height="59" filterUnits="userSpaceOnUse" color-interpolation-filters="sRGB">
<feFlood flood-opacity="0" result="BackgroundImageFix"/>
<feBlend mode="normal" in="SourceGraphic" in2="BackgroundImageFix" result="shape"/>
<feColorMatrix in="SourceAlpha" type="matrix" values="0 0 0 0 0 0 0 0 0 0 0 0 0 0 0 0 0 0 127 0" result="hardAlpha"/>
<feOffset dx="3" dy="3"/>
<feGaussianBlur stdDeviation="2"/>
<feComposite in2="hardAlpha" operator="arithmetic" k2="-1" k3="1"/>
<feColorMatrix type="matrix" values="0 0 0 0 0 0 0 0 0 0 0 0 0 0 0 0 0 0 0.25 0"/>
<feBlend mode="normal" in2="shape" result="effect1_innerShadow_21_999"/>
<feColorMatrix in="SourceAlpha" type="matrix" values="0 0 0 0 0 0 0 0 0 0 0 0 0 0 0 0 0 0 127 0" result="hardAlpha"/>
<feOffset dx="-3" dy="-3"/>
<feGaussianBlur stdDeviation="2"/>
<feComposite in2="hardAlpha" operator="arithmetic" k2="-1" k3="1"/>
<feColorMatrix type="matrix" values="0 0 0 0 0 0 0 0 0 0 0 0 0 0 0 0 0 0 0.25 0"/>
<feBlend mode="normal" in2="effect1_innerShadow_21_999" result="effect2_innerShadow_21_999"/>
</filter>
<linearGradient id="paint0_linear_21_999" x1="3.32282" y1="134.983" x2="378.62" y2="134.983" gradientUnits="userSpaceOnUse">
<stop stop-color="#8B5E35"/>
<stop offset="1" stop-color="#734924"/>
</linearGradient>
<linearGradient id="paint1_linear_21_999" x1="4.15681" y1="134.983" x2="378.62" y2="134.983" gradientUnits="userSpaceOnUse">
<stop stop-color="#8B5E35"/>
<stop offset="1" stop-color="#734924"/>
</linearGradient>
<linearGradient id="paint2_linear_21_999" x1="179.5" y1="128" x2="179.5" y2="194" gradientUnits="userSpaceOnUse">
<stop stop-color="#272F2F"/>
<stop offset="0.32" stop-color="#2E3A3A"/>
<stop offset="1" stop-color="#3E5151"/>
</linearGradient>
<linearGradient id="paint3_linear_21_999" x1="136.097" y1="133.5" x2="136.097" y2="199.5" gradientUnits="userSpaceOnUse">
<stop offset="0.275" stop-color="#A06F33"/>
<stop offset="1" stop-color="#B47E3D"/>
</linearGradient>
<linearGradient id="paint4_linear_21_999" x1="208.5" y1="70" x2="208.5" y2="124.71" gradientUnits="userSpaceOnUse">
<stop stop-color="#272F2F"/>
<stop offset="0.32" stop-color="#2E3A3A"/>
<stop offset="1" stop-color="#3E5151"/>
</linearGradient>
<linearGradient id="paint5_linear_21_999" x1="191" y1="124.71" x2="191" y2="70" gradientUnits="userSpaceOnUse">
<stop offset="0.54" stop-color="#B47E3D"/>
<stop offset="1" stop-color="#A06F33"/>
</linearGradient>
<linearGradient id="paint6_linear_21_999" x1="173" y1="38.5" x2="188" y2="88.5" gradientUnits="userSpaceOnUse">
<stop stop-color="#F2C785"/>
<stop offset="0.741378" stop-color="#FADCAF"/>
</linearGradient>
<linearGradient id="paint7_linear_21_999" x1="190.5" y1="95" x2="190.5" y2="37" gradientUnits="userSpaceOnUse">
<stop stop-color="#A06F33"/>
<stop offset="1" stop-color="#B47E3D"/>
</linearGradient>
<linearGradient id="paint8_linear_21_999" x1="170.778" y1="96.8148" x2="207.604" y2="134.392" gradientUnits="userSpaceOnUse">
<stop stop-color="#BA9671"/>
<stop offset="1" stop-color="#D0A87F"/>
</linearGradient>
<linearGradient id="paint9_linear_21_999" x1="169.5" y1="100" x2="209" y2="132" gradientUnits="userSpaceOnUse">
<stop stop-color="#FFBC2B"/>
<stop offset="1" stop-color="#99711A"/>
</linearGradient>
<linearGradient id="paint10_linear_21_999" x1="172" y1="113.5" x2="174.714" y2="111.042" gradientUnits="userSpaceOnUse">
<stop stop-color="white"/>
<stop offset="0.9" stop-color="white"/>
<stop offset="1" stop-color="white" stop-opacity="0"/>
</linearGradient>
</defs>
</svg>
