<svg width="277" height="527" viewBox="0 0 277 527" fill="none" xmlns="http://www.w3.org/2000/svg">
<g filter="url(#filter0_dii_21_990)">
<rect x="3" y="10" width="250.198" height="500.396" fill="url(#paint0_linear_21_990)"/>
<rect x="1.5" y="8.5" width="253.198" height="503.396" stroke="url(#paint1_linear_21_990)" stroke-width="3"/>
</g>
<g filter="url(#filter1_ii_21_990)">
<rect x="9.25494" y="16.2549" width="237.688" height="487.886" rx="2" fill="#E6E3DD"/>
</g>
<path d="M64.954 65.5235C62.934 65.5235 61.144 65.0535 59.584 64.1135C58.044 63.1735 56.834 61.8835 55.954 60.2435C55.074 58.5835 54.634 56.7035 54.634 54.6035C54.634 53.0235 54.914 51.5835 55.474 50.2835C56.034 48.9635 56.794 47.8335 57.754 46.8935C58.714 45.9335 59.814 45.1935 61.054 44.6735C62.294 44.1535 63.594 43.8935 64.954 43.8935C66.514 43.8935 67.954 44.1835 69.274 44.7635C70.594 45.3235 71.584 46.1135 72.244 47.1335C72.524 47.5735 72.694 47.9335 72.754 48.2135C72.814 48.4935 72.794 48.7135 72.694 48.8735C72.554 49.1135 72.334 49.2035 72.034 49.1435C71.754 49.0635 71.614 48.8635 71.614 48.5435C71.614 48.3835 71.654 48.2535 71.734 48.1535C71.814 48.0535 71.864 47.9435 71.884 47.8235C71.924 47.7035 71.864 47.5335 71.704 47.3135C71.084 46.3935 70.164 45.6835 68.944 45.1835C67.724 44.6635 66.394 44.4035 64.954 44.4035C63.674 44.4035 62.444 44.6535 61.264 45.1535C60.104 45.6535 59.064 46.3535 58.144 47.2535C57.224 48.1535 56.494 49.2335 55.954 50.4935C55.434 51.7335 55.174 53.1035 55.174 54.6035C55.174 56.6035 55.584 58.3835 56.404 59.9435C57.244 61.5035 58.404 62.7335 59.884 63.6335C61.364 64.5335 63.054 64.9935 64.954 65.0135C66.434 65.0335 67.784 64.7635 69.004 64.2035C70.224 63.6435 71.264 62.8735 72.124 61.8935L72.544 62.2535C71.624 63.2935 70.514 64.1035 69.214 64.6835C67.934 65.2435 66.514 65.5235 64.954 65.5235ZM85.9598 65.5235C83.9398 65.5235 82.1498 65.0635 80.5898 64.1435C79.0498 63.2235 77.8398 61.9435 76.9598 60.3035C76.0798 58.6635 75.6398 56.7635 75.6398 54.6035C75.6398 52.5035 76.0798 50.6535 76.9598 49.0535C77.8398 47.4335 79.0498 46.1735 80.5898 45.2735C82.1498 44.3535 83.9398 43.8935 85.9598 43.8935C87.9598 43.8935 89.7298 44.3535 91.2698 45.2735C92.8098 46.1735 94.0098 47.4335 94.8698 49.0535C95.7498 50.6535 96.1898 52.5035 96.1898 54.6035C96.1898 56.7635 95.7498 58.6635 94.8698 60.3035C94.0098 61.9435 92.8098 63.2235 91.2698 64.1435C89.7298 65.0635 87.9598 65.5235 85.9598 65.5235ZM85.9598 65.0135C87.8598 64.9935 89.5398 64.5435 90.9998 63.6635C92.4598 62.7835 93.5998 61.5635 94.4198 60.0035C95.2398 58.4435 95.6498 56.6435 95.6498 54.6035C95.6498 52.6035 95.2398 50.8435 94.4198 49.3235C93.5998 47.7835 92.4598 46.5835 90.9998 45.7235C89.5398 44.8435 87.8598 44.4035 85.9598 44.4035C84.0598 44.4035 82.3698 44.8435 80.8898 45.7235C79.4098 46.5835 78.2498 47.7835 77.4098 49.3235C76.5898 50.8435 76.1798 52.6035 76.1798 54.6035C76.1798 56.6435 76.5898 58.4435 77.4098 60.0035C78.2498 61.5635 79.4098 62.7835 80.8898 63.6635C82.3698 64.5435 84.0598 64.9935 85.9598 65.0135ZM98.4363 65.0135V64.5035H99.8763C100.196 64.5035 100.416 64.4335 100.536 64.2935C100.656 64.1535 100.716 63.9335 100.716 63.6335V44.9135H98.4963V44.4035H103.476V44.9135H101.376L115.116 63.7535V44.9135H112.836V44.4035H117.876V44.9135H116.496C116.176 44.9135 115.956 44.9835 115.836 45.1235C115.716 45.2635 115.656 45.4835 115.656 45.7835V64.5035H117.876V65.0135H112.836V64.5035H114.996L101.256 45.6635V64.5035H103.476V65.0135H98.4363ZM126.293 65.0135V64.5035H128.483C128.803 64.5035 129.023 64.4335 129.143 64.2935C129.263 64.1535 129.323 63.9335 129.323 63.6335V44.9135H121.103V46.8935H120.563V44.4035H138.623V46.8935H138.083V44.9135H130.703C130.383 44.9135 130.163 44.9835 130.043 45.1235C129.923 45.2635 129.863 45.4835 129.863 45.7835V64.5035H132.653V65.0135H126.293ZM138.94 65.0135V64.5035H141.31L148.36 44.9135H144.64V44.4035H153.4V44.9135H149.5L156.61 64.5035H159.04V65.0135H153.52V64.5035H156.04L153.16 56.4635L144.76 56.4335L141.88 64.5035H144.46V65.0135H138.94ZM152.95 55.9535L148.93 44.9135L144.94 55.9235L152.95 55.9535ZM171.009 65.5235C168.989 65.5235 167.199 65.0535 165.639 64.1135C164.099 63.1735 162.889 61.8835 162.009 60.2435C161.129 58.5835 160.689 56.7035 160.689 54.6035C160.689 53.0235 160.969 51.5835 161.529 50.2835C162.089 48.9635 162.849 47.8335 163.809 46.8935C164.769 45.9335 165.869 45.1935 167.109 44.6735C168.349 44.1535 169.649 43.8935 171.009 43.8935C172.569 43.8935 174.009 44.1835 175.329 44.7635C176.649 45.3235 177.639 46.1135 178.299 47.1335C178.579 47.5735 178.749 47.9335 178.809 48.2135C178.869 48.4935 178.849 48.7135 178.749 48.8735C178.609 49.1135 178.389 49.2035 178.089 49.1435C177.809 49.0635 177.669 48.8635 177.669 48.5435C177.669 48.3835 177.709 48.2535 177.789 48.1535C177.869 48.0535 177.919 47.9435 177.939 47.8235C177.979 47.7035 177.919 47.5335 177.759 47.3135C177.139 46.3935 176.219 45.6835 174.999 45.1835C173.779 44.6635 172.449 44.4035 171.009 44.4035C169.729 44.4035 168.499 44.6535 167.319 45.1535C166.159 45.6535 165.119 46.3535 164.199 47.2535C163.279 48.1535 162.549 49.2335 162.009 50.4935C161.489 51.7335 161.229 53.1035 161.229 54.6035C161.229 56.6035 161.639 58.3835 162.459 59.9435C163.299 61.5035 164.459 62.7335 165.939 63.6335C167.419 64.5335 169.109 64.9935 171.009 65.0135C172.489 65.0335 173.839 64.7635 175.059 64.2035C176.279 63.6435 177.319 62.8735 178.179 61.8935L178.599 62.2535C177.679 63.2935 176.569 64.1035 175.269 64.6835C173.989 65.2435 172.569 65.5235 171.009 65.5235ZM187.582 65.0135V64.5035H189.772C190.092 64.5035 190.312 64.4335 190.432 64.2935C190.552 64.1535 190.612 63.9335 190.612 63.6335V44.9135H182.392V46.8935H181.852V44.4035H199.912V46.8935H199.372V44.9135H191.992C191.672 44.9135 191.452 44.9835 191.332 45.1235C191.212 45.2635 191.152 45.4835 191.152 45.7835V64.5035H193.942V65.0135H187.582Z" fill="black"/>
<path d="M67.8944 129H32.1056C31.7033 128.994 31.3039 129.074 30.9301 129.236C30.5563 129.398 30.2154 129.639 29.927 129.944C29.6386 130.25 29.4083 130.614 29.2493 131.016C29.0902 131.419 29.0055 131.851 29 132.289V171.711C29.0055 172.149 29.0902 172.581 29.2493 172.984C29.4083 173.386 29.6386 173.75 29.927 174.056C30.2154 174.361 30.5563 174.602 30.9301 174.764C31.3039 174.926 31.7033 175.006 32.1056 175H67.8944C68.2967 175.006 68.6961 174.926 69.0699 174.764C69.4437 174.602 69.7846 174.361 70.073 174.056C70.3614 173.75 70.5917 173.386 70.7507 172.984C70.9098 172.581 70.9945 172.149 71 171.711V132.289C70.9945 131.851 70.9098 131.419 70.7507 131.016C70.5917 130.614 70.3614 130.25 70.073 129.944C69.7846 129.639 69.4437 129.398 69.0699 129.236C68.6961 129.074 68.2967 128.994 67.8944 129ZM41.7394 167.502H35.4014V146.802H41.7394V167.502ZM38.5704 143.904C37.6963 143.904 36.858 143.526 36.24 142.853C35.6219 142.18 35.2746 141.268 35.2746 140.316C35.2746 139.365 35.6219 138.452 36.24 137.779C36.858 137.106 37.6963 136.728 38.5704 136.728C39.0346 136.671 39.5046 136.721 39.9497 136.875C40.3949 137.029 40.8051 137.284 41.1535 137.623C41.5019 137.962 41.7807 138.377 41.9716 138.841C42.1624 139.305 42.2611 139.808 42.2611 140.316C42.2611 140.825 42.1624 141.327 41.9716 141.792C41.7807 142.256 41.5019 142.671 41.1535 143.01C40.8051 143.348 40.3949 143.603 39.9497 143.757C39.5046 143.911 39.0346 143.961 38.5704 143.904ZM64.5986 167.502H58.2606V156.393C58.2606 153.61 57.3521 151.793 55.0493 151.793C54.3366 151.799 53.6427 152.042 53.0609 152.49C52.4792 152.939 52.0376 153.57 51.7958 154.3C51.6304 154.841 51.5588 155.41 51.5845 155.979V167.479H45.2465C45.2465 167.479 45.2465 148.665 45.2465 146.779H51.5845V149.7C52.1603 148.612 52.9977 147.716 54.0066 147.108C55.0154 146.501 56.1575 146.204 57.3099 146.25C61.5352 146.25 64.5986 149.217 64.5986 155.588V167.502Z" fill="black"/>
<g clip-path="url(#clip0_21_990)">
<path d="M30 198.715V197.347C30 196.463 30.2634 195.615 30.7322 194.99C31.2011 194.365 31.837 194.014 32.5 194.014H67.5C68.163 194.014 68.7989 194.365 69.2678 194.99C69.7366 195.615 70 196.463 70 197.347V198.715L50 215.381L30 198.715ZM50.6625 218.761C50.4638 218.926 50.2342 219.014 50 219.014C49.7658 219.014 49.5362 218.926 49.3375 218.761L30 202.646V230.68C30 231.564 30.2634 232.412 30.7322 233.037C31.2011 233.662 31.837 234.014 32.5 234.014H67.5C68.163 234.014 68.7989 233.662 69.2678 233.037C69.7366 232.412 70 231.564 70 230.68V202.646L50.6625 218.761Z" fill="black"/>
</g>
<path d="M70.8333 262.659C70.8099 261.761 70.7404 260.864 70.625 259.972C70.4694 259.191 70.2102 258.434 69.8542 257.722C69.4818 256.949 68.9817 256.245 68.375 255.639C67.7627 255.039 67.0596 254.54 66.2917 254.159C65.5784 253.81 64.8217 253.558 64.0417 253.409C63.1585 253.277 62.2678 253.201 61.375 253.18H38.6458C37.747 253.204 36.85 253.273 35.9583 253.389C35.1773 253.544 34.4206 253.803 33.7083 254.159C32.9356 254.532 32.2313 255.032 31.625 255.639C31.0254 256.251 30.5262 256.954 30.1458 257.722C29.7968 258.435 29.5445 259.192 29.3958 259.972C29.2635 260.855 29.187 261.746 29.1667 262.639C29.1667 263.034 29.1667 263.597 29.1667 263.764V284.264C29.1667 284.493 29.1667 284.993 29.1667 285.368C29.1901 286.267 29.2596 287.164 29.375 288.055C29.5306 288.836 29.7898 289.593 30.1458 290.305C30.5182 291.078 31.0183 291.782 31.625 292.389C32.2373 292.988 32.9404 293.487 33.7083 293.868C34.4216 294.217 35.1783 294.469 35.9583 294.618C36.8415 294.75 37.7322 294.827 38.625 294.847H61.3542C62.253 294.823 63.15 294.754 64.0417 294.639C64.8227 294.483 65.5794 294.224 66.2917 293.868C67.0644 293.495 67.7687 292.995 68.375 292.389C68.9746 291.776 69.4738 291.073 69.8542 290.305C70.2032 289.592 70.4555 288.835 70.6042 288.055C70.7365 287.172 70.813 286.281 70.8333 285.389C70.8333 284.993 70.8333 284.493 70.8333 284.264V263.764C70.8333 263.597 70.8333 263.034 70.8333 262.659ZM50.4792 288.597C47.9772 288.585 45.519 287.94 43.3333 286.722L35.4167 288.805L37.5 281.055C36.1565 278.798 35.4375 276.224 35.4167 273.597C35.425 270.645 36.3067 267.761 37.9507 265.309C39.5948 262.857 41.9277 260.946 44.6557 259.817C47.3836 258.688 50.3846 258.392 53.2806 258.966C56.1766 259.539 58.8382 260.957 60.9301 263.04C63.022 265.123 64.4506 267.779 65.0361 270.672C65.6216 273.566 65.3378 276.568 64.2204 279.301C63.103 282.033 61.2019 284.374 58.7567 286.028C56.3114 287.683 53.4313 288.576 50.4792 288.597ZM50.4792 261.243C48.2704 261.268 46.1078 261.878 44.2116 263.011C42.3153 264.144 40.7531 265.759 39.6839 267.692C38.6148 269.625 38.077 271.806 38.1252 274.015C38.1734 276.223 38.8059 278.379 39.9583 280.264L40.25 280.743L39 285.305L43.75 284.014L44.2083 284.284C46.1033 285.401 48.2592 285.997 50.4583 286.014C53.7735 286.014 56.953 284.697 59.2972 282.352C61.6414 280.008 62.9583 276.829 62.9583 273.514C62.9583 270.198 61.6414 267.019 59.2972 264.675C56.953 262.331 53.7735 261.014 50.4583 261.014L50.4792 261.243ZM57.7708 278.993C57.498 279.448 57.1326 279.841 56.6984 280.146C56.2641 280.451 55.7707 280.661 55.25 280.764C54.472 280.906 53.6709 280.856 52.9167 280.618C52.207 280.396 51.5113 280.131 50.8333 279.826C48.2578 278.534 46.0613 276.596 44.4583 274.201C43.5873 273.092 43.0587 271.752 42.9375 270.347C42.9251 269.763 43.0355 269.183 43.2616 268.645C43.4877 268.107 43.8245 267.622 44.25 267.222C44.3753 267.08 44.5291 266.966 44.7014 266.887C44.8736 266.808 45.0605 266.766 45.25 266.764H45.8333C46.0625 266.764 46.375 266.764 46.6667 267.409C46.9583 268.055 47.7292 269.993 47.8333 270.18C47.8845 270.28 47.9112 270.391 47.9112 270.503C47.9112 270.615 47.8845 270.726 47.8333 270.826C47.7412 271.052 47.6147 271.263 47.4583 271.451C47.2708 271.68 47.0625 271.951 46.8958 272.118C46.7292 272.284 46.5208 272.493 46.7292 272.868C47.296 273.824 47.9977 274.694 48.8125 275.451C49.6998 276.235 50.7144 276.862 51.8125 277.305C52.1875 277.493 52.4167 277.472 52.625 277.305C52.8333 277.139 53.5625 276.222 53.8125 275.847C54.0625 275.472 54.3125 275.534 54.6458 275.659C54.9792 275.784 56.8333 276.68 57.2083 276.868C57.5833 277.055 57.8125 277.139 57.9167 277.305C58.007 277.85 57.9568 278.41 57.7708 278.93V278.993Z" fill="black"/>
<defs>
<filter id="filter0_dii_21_990" x="-1" y="0" width="277.198" height="526.396" filterUnits="userSpaceOnUse" color-interpolation-filters="sRGB">
<feFlood flood-opacity="0" result="BackgroundImageFix"/>
<feColorMatrix in="SourceAlpha" type="matrix" values="0 0 0 0 0 0 0 0 0 0 0 0 0 0 0 0 0 0 127 0" result="hardAlpha"/>
<feOffset dx="10" dy="3"/>
<feGaussianBlur stdDeviation="5"/>
<feColorMatrix type="matrix" values="0 0 0 0 0.74902 0 0 0 0 0.717647 0 0 0 0 0.690196 0 0 0 1 0"/>
<feBlend mode="normal" in2="BackgroundImageFix" result="effect1_dropShadow_21_990"/>
<feBlend mode="normal" in="SourceGraphic" in2="effect1_dropShadow_21_990" result="shape"/>
<feColorMatrix in="SourceAlpha" type="matrix" values="0 0 0 0 0 0 0 0 0 0 0 0 0 0 0 0 0 0 127 0" result="hardAlpha"/>
<feOffset dx="1" dy="1"/>
<feGaussianBlur stdDeviation="5"/>
<feComposite in2="hardAlpha" operator="arithmetic" k2="-1" k3="1"/>
<feColorMatrix type="matrix" values="0 0 0 0 0 0 0 0 0 0 0 0 0 0 0 0 0 0 0.5 0"/>
<feBlend mode="normal" in2="shape" result="effect2_innerShadow_21_990"/>
<feColorMatrix in="SourceAlpha" type="matrix" values="0 0 0 0 0 0 0 0 0 0 0 0 0 0 0 0 0 0 127 0" result="hardAlpha"/>
<feOffset dx="-1" dy="-1"/>
<feGaussianBlur stdDeviation="5"/>
<feComposite in2="hardAlpha" operator="arithmetic" k2="-1" k3="1"/>
<feColorMatrix type="matrix" values="0 0 0 0 0 0 0 0 0 0 0 0 0 0 0 0 0 0 0.3 0"/>
<feBlend mode="normal" in2="effect2_innerShadow_21_990" result="effect3_innerShadow_21_990"/>
</filter>
<filter id="filter1_ii_21_990" x="9.25494" y="16.2549" width="237.688" height="487.886" filterUnits="userSpaceOnUse" color-interpolation-filters="sRGB">
<feFlood flood-opacity="0" result="BackgroundImageFix"/>
<feBlend mode="normal" in="SourceGraphic" in2="BackgroundImageFix" result="shape"/>
<feColorMatrix in="SourceAlpha" type="matrix" values="0 0 0 0 0 0 0 0 0 0 0 0 0 0 0 0 0 0 127 0" result="hardAlpha"/>
<feOffset dx="3" dy="3"/>
<feComposite in2="hardAlpha" operator="arithmetic" k2="-1" k3="1"/>
<feColorMatrix type="matrix" values="0 0 0 0 0 0 0 0 0 0 0 0 0 0 0 0 0 0 0.1 0"/>
<feBlend mode="normal" in2="shape" result="effect1_innerShadow_21_990"/>
<feColorMatrix in="SourceAlpha" type="matrix" values="0 0 0 0 0 0 0 0 0 0 0 0 0 0 0 0 0 0 127 0" result="hardAlpha"/>
<feOffset dx="-3" dy="-3"/>
<feComposite in2="hardAlpha" operator="arithmetic" k2="-1" k3="1"/>
<feColorMatrix type="matrix" values="0 0 0 0 0 0 0 0 0 0 0 0 0 0 0 0 0 0 0.1 0"/>
<feBlend mode="normal" in2="effect1_innerShadow_21_990" result="effect2_innerShadow_21_990"/>
</filter>
<linearGradient id="paint0_linear_21_990" x1="3" y1="259.558" x2="253.198" y2="259.558" gradientUnits="userSpaceOnUse">
<stop stop-color="#8B5E35"/>
<stop offset="1" stop-color="#734924"/>
</linearGradient>
<linearGradient id="paint1_linear_21_990" x1="3.55599" y1="259.558" x2="253.198" y2="259.558" gradientUnits="userSpaceOnUse">
<stop stop-color="#8B5E35"/>
<stop offset="1" stop-color="#734924"/>
</linearGradient>
<clipPath id="clip0_21_990">
<rect width="40" height="40" fill="white" transform="translate(30 194.014)"/>
</clipPath>
</defs>
</svg>
