<svg width="340" height="402" viewBox="0 0 340 402" fill="none" xmlns="http://www.w3.org/2000/svg">
<g filter="url(#filter0_dii_21_995)">
<rect x="3.53589" y="10.1843" width="312.747" height="375.297" fill="url(#paint0_linear_21_995)"/>
<rect x="2.03589" y="8.68433" width="315.747" height="378.297" stroke="url(#paint1_linear_21_995)" stroke-width="3"/>
</g>
<g filter="url(#filter1_ii_21_995)">
<rect x="9.79083" y="16.4393" width="300.237" height="362.787" rx="2" fill="#C6C0BB"/>
</g>
<path d="M75.1956 355V354.49H76.5156C77.0756 354.49 77.3556 354.2 77.3556 353.62V335.77C77.3556 335.19 77.0856 334.9 76.5456 334.9H75.0156V334.39H89.0856V336.88H88.5456V334.9H77.8956V343.54H85.9956V341.92H86.5356V345.67H85.9956V344.05H77.8956V354.49H88.5456V352.78H89.0856V355H75.1956ZM97.7127 355L91.8027 354.97V354.46H93.3027C93.6227 354.46 93.8427 354.4 93.9627 354.28C94.0827 354.16 94.1427 353.94 94.1427 353.62V335.74C94.1427 335.48 94.0727 335.27 93.9327 335.11C93.7927 334.95 93.5927 334.87 93.3327 334.87H91.8027V334.36H97.7127C99.6927 334.36 101.363 334.63 102.723 335.17C104.083 335.71 105.173 336.46 105.993 337.42C106.833 338.36 107.433 339.45 107.793 340.69C108.173 341.91 108.363 343.2 108.363 344.56C108.363 345.96 108.173 347.29 107.793 348.55C107.413 349.79 106.803 350.9 105.963 351.88C105.143 352.86 104.053 353.63 102.693 354.19C101.333 354.73 99.6727 355 97.7127 355ZM97.7127 354.49C99.6127 354.51 101.203 354.25 102.483 353.71C103.783 353.17 104.823 352.44 105.603 351.52C106.383 350.58 106.943 349.52 107.283 348.34C107.643 347.14 107.823 345.88 107.823 344.56C107.823 343.26 107.643 342.03 107.283 340.87C106.943 339.71 106.383 338.68 105.603 337.78C104.823 336.88 103.783 336.17 102.483 335.65C101.203 335.13 99.6127 334.87 97.7127 334.87H94.6827V354.46L97.7127 354.49ZM120.677 355.54C118.357 355.54 116.517 354.81 115.157 353.35C113.797 351.89 113.117 349.72 113.117 346.84V334.9H110.897V334.39H115.877V334.9H114.497C114.177 334.9 113.957 334.97 113.837 335.11C113.717 335.25 113.657 335.47 113.657 335.77V346.84C113.657 349.54 114.287 351.57 115.547 352.93C116.807 354.29 118.517 354.98 120.677 355C122.837 355.02 124.547 354.35 125.807 352.99C127.087 351.61 127.727 349.56 127.727 346.84V334.9H125.507V334.39H130.547V334.9H129.107C128.787 334.9 128.567 334.97 128.447 335.11C128.327 335.25 128.267 335.47 128.267 335.77V346.84C128.267 349.72 127.577 351.89 126.197 353.35C124.837 354.81 122.997 355.54 120.677 355.54ZM143.128 355.51C141.108 355.51 139.318 355.04 137.758 354.1C136.218 353.16 135.008 351.87 134.128 350.23C133.248 348.57 132.808 346.69 132.808 344.59C132.808 343.01 133.088 341.57 133.648 340.27C134.208 338.95 134.968 337.82 135.928 336.88C136.888 335.92 137.988 335.18 139.228 334.66C140.468 334.14 141.768 333.88 143.128 333.88C144.688 333.88 146.128 334.17 147.448 334.75C148.768 335.31 149.758 336.1 150.418 337.12C150.698 337.56 150.868 337.92 150.928 338.2C150.988 338.48 150.968 338.7 150.868 338.86C150.728 339.1 150.508 339.19 150.208 339.13C149.928 339.05 149.788 338.85 149.788 338.53C149.788 338.37 149.828 338.24 149.908 338.14C149.988 338.04 150.038 337.93 150.058 337.81C150.098 337.69 150.038 337.52 149.878 337.3C149.258 336.38 148.338 335.67 147.118 335.17C145.898 334.65 144.568 334.39 143.128 334.39C141.848 334.39 140.618 334.64 139.438 335.14C138.278 335.64 137.238 336.34 136.318 337.24C135.398 338.14 134.668 339.22 134.128 340.48C133.608 341.72 133.348 343.09 133.348 344.59C133.348 346.59 133.758 348.37 134.578 349.93C135.418 351.49 136.578 352.72 138.058 353.62C139.538 354.52 141.228 354.98 143.128 355C144.608 355.02 145.958 354.75 147.178 354.19C148.398 353.63 149.438 352.86 150.298 351.88L150.718 352.24C149.798 353.28 148.688 354.09 147.388 354.67C146.108 355.23 144.688 355.51 143.128 355.51ZM151.284 355V354.49H153.654L160.704 334.9H156.984V334.39H165.744V334.9H161.844L168.954 354.49H171.384V355H165.864V354.49H168.384L165.504 346.45L157.104 346.42L154.224 354.49H156.804V355H151.284ZM165.294 345.94L161.274 334.9L157.284 345.91L165.294 345.94ZM177.425 355V354.49H179.615C179.935 354.49 180.155 354.42 180.275 354.28C180.395 354.14 180.455 353.92 180.455 353.62V334.9H172.235V336.88H171.695V334.39H189.755V336.88H189.215V334.9H181.835C181.515 334.9 181.295 334.97 181.175 335.11C181.055 335.25 180.995 335.47 180.995 335.77V354.49H183.785V355H177.425ZM192.76 355V354.49H195.85C196.17 354.49 196.39 354.42 196.51 354.28C196.63 354.14 196.69 353.92 196.69 353.62V334.9H192.79V334.39H201.1V334.9H198.07C197.75 334.9 197.53 334.97 197.41 335.11C197.29 335.25 197.23 335.47 197.23 335.77V354.49H201.1V355H192.76ZM213.382 355.51C211.362 355.51 209.572 355.05 208.012 354.13C206.472 353.21 205.262 351.93 204.382 350.29C203.502 348.65 203.062 346.75 203.062 344.59C203.062 342.49 203.502 340.64 204.382 339.04C205.262 337.42 206.472 336.16 208.012 335.26C209.572 334.34 211.362 333.88 213.382 333.88C215.382 333.88 217.152 334.34 218.692 335.26C220.232 336.16 221.432 337.42 222.292 339.04C223.172 340.64 223.612 342.49 223.612 344.59C223.612 346.75 223.172 348.65 222.292 350.29C221.432 351.93 220.232 353.21 218.692 354.13C217.152 355.05 215.382 355.51 213.382 355.51ZM213.382 355C215.282 354.98 216.962 354.53 218.422 353.65C219.882 352.77 221.022 351.55 221.842 349.99C222.662 348.43 223.072 346.63 223.072 344.59C223.072 342.59 222.662 340.83 221.842 339.31C221.022 337.77 219.882 336.57 218.422 335.71C216.962 334.83 215.282 334.39 213.382 334.39C211.482 334.39 209.792 334.83 208.312 335.71C206.832 336.57 205.672 337.77 204.832 339.31C204.012 340.83 203.602 342.59 203.602 344.59C203.602 346.63 204.012 348.43 204.832 349.99C205.672 351.55 206.832 352.77 208.312 353.65C209.792 354.53 211.482 354.98 213.382 355ZM225.858 355V354.49H227.298C227.618 354.49 227.838 354.42 227.958 354.28C228.078 354.14 228.138 353.92 228.138 353.62V334.9H225.918V334.39H230.898V334.9H228.798L242.538 353.74V334.9H240.258V334.39H245.298V334.9H243.918C243.598 334.9 243.378 334.97 243.258 335.11C243.138 335.25 243.078 335.47 243.078 335.77V354.49H245.298V355H240.258V354.49H242.418L228.678 335.65V354.49H230.898V355H225.858Z" fill="black"/>
<g filter="url(#filter2_d_21_995)">
<path fill-rule="evenodd" clip-rule="evenodd" d="M259 140L163 96.1309L70.6426 140L137.152 169.259C142.281 166.505 147.65 163.849 152.312 161.868C154.692 160.856 156.895 160.017 158.791 159.43C160.676 158.847 162.297 158.5 163.5 158.5C164.707 158.5 166.309 158.865 168.153 159.474C170.008 160.088 172.151 160.963 174.457 162.014C178.963 164.067 184.121 166.806 189.025 169.616L259 140ZM187.867 170.106C183.18 167.44 178.31 164.869 174.043 162.924C171.755 161.881 169.648 161.022 167.839 160.424C166.02 159.822 164.543 159.5 163.5 159.5C162.453 159.5 160.949 159.809 159.086 160.386C157.234 160.959 155.066 161.784 152.703 162.788C148.286 164.666 143.215 167.159 138.315 169.771L163 180.631L187.867 170.106ZM114.78 143.551C114.532 143.672 114.43 143.972 114.551 144.22C114.672 144.468 114.972 144.57 115.22 144.449L161.927 121.592C161.953 121.58 161.978 121.565 162.001 121.548L210.795 143.456C211.047 143.569 211.343 143.457 211.456 143.205C211.569 142.953 211.457 142.657 211.205 142.544L162.205 120.544C162.01 120.456 161.788 120.504 161.646 120.647C161.592 120.654 161.539 120.669 161.487 120.694L114.78 143.551Z" fill="url(#paint2_linear_21_995)"/>
<path fill-rule="evenodd" clip-rule="evenodd" d="M66.4041 139.965L162.565 94.2895L262.517 139.965L190.478 170.455C190.839 170.665 191.198 170.875 191.555 171.085L263.751 140.529L265 140L263.766 139.436L162.557 93.1863L65.1941 139.433L64 140L65.21 140.532L134.187 170.877C134.552 170.675 134.919 170.472 135.289 170.27L66.4041 139.965ZM136.445 170.778C136.074 170.98 135.705 171.182 135.338 171.384L162.557 183.358L190.407 171.571C190.048 171.361 189.688 171.152 189.325 170.943L162.564 182.269L136.445 170.778Z" fill="black"/>
<path d="M115.512 144.308L162.312 121.702L210.479 143.314L208.086 181.606C207.84 181.372 207.547 181.117 207.212 180.843C206.168 179.987 204.679 178.913 202.881 177.702C199.282 175.28 194.412 172.289 189.31 169.378C184.209 166.468 178.868 163.632 174.328 161.523C172.058 160.469 169.982 159.592 168.231 158.978C166.497 158.37 165.029 158 164 158C162.978 158 161.467 158.351 159.653 158.933C157.822 159.52 155.63 160.36 153.22 161.375C148.4 163.405 142.684 166.146 137.207 168.994C131.73 171.842 126.482 174.802 122.599 177.273C120.659 178.508 119.048 179.628 117.916 180.556C117.541 180.863 117.213 181.155 116.94 181.427L115.512 144.308Z" fill="#A06E31" stroke="black"/>
<path d="M115.512 144.308L162.312 121.702L210.479 143.314L208.086 181.606C207.84 181.372 207.547 181.117 207.212 180.843C206.168 179.987 204.679 178.913 202.881 177.702C199.282 175.28 194.412 172.289 189.31 169.378C184.209 166.468 178.868 163.632 174.328 161.523C172.058 160.469 169.982 159.592 168.231 158.978C166.497 158.37 165.029 158 164 158C162.978 158 161.467 158.351 159.653 158.933C157.822 159.52 155.63 160.36 153.22 161.375C148.4 163.405 142.684 166.146 137.207 168.994C131.73 171.842 126.482 174.802 122.599 177.273C120.659 178.508 119.048 179.628 117.916 180.556C117.541 180.863 117.213 181.155 116.94 181.427L115.512 144.308Z" fill="#020202" stroke="black"/>
<path d="M117.5 179.5L116.5 144.5L162 123L162.5 157C160.199 156.777 146.121 163.481 134.5 169.5C125.459 174.183 117.5 179.5 117.5 179.5Z" fill="#B4936B"/>
<path d="M207 179L208.5 145L163.5 124L164 156.5C166.276 156.277 181 162.824 191.5 169C200 174 207 179 207 179Z" stroke="#C6C0BB"/>
<path d="M119 184C119 183 153.842 161.5 163.5 161.5C173.158 161.5 206 183 206 184" stroke="black" stroke-width="4" stroke-linecap="round"/>
<g filter="url(#filter3_d_21_995)">
<path fill-rule="evenodd" clip-rule="evenodd" d="M102 121.895L102 192H104L104 121C104 120.984 104 120.967 103.999 120.951L102 121.895Z" fill="url(#paint3_linear_21_995)" shape-rendering="crispEdges"/>
<path d="M102 192H101.95L101.95 192.05H102V192ZM102 121.895L101.979 121.85L101.95 121.863L101.95 121.895H102ZM104 192V192.05H104.05V192H104ZM104 121H104.05H104ZM103.999 120.951L104.049 120.949L104.045 120.874L103.977 120.906L103.999 120.951ZM102.05 192L102.05 121.895H101.95L101.95 192H102.05ZM104 191.95H102V192.05H104V191.95ZM103.95 121L103.95 192H104.05L104.05 121L103.95 121ZM103.949 120.954C103.95 120.969 103.95 120.984 103.95 121H104.05C104.05 120.983 104.05 120.966 104.049 120.949L103.949 120.954ZM103.977 120.906L101.979 121.85L102.021 121.94L104.02 120.996L103.977 120.906Z" fill="url(#paint4_linear_21_995)"/>
</g>
<rect x="98" y="191" width="10" height="3" rx="1" fill="black"/>
<g filter="url(#filter4_d_21_995)">
<path d="M100.25 195.25H105.75V220C105.75 221.519 104.519 222.75 103 222.75C101.481 222.75 100.25 221.519 100.25 220V195.25Z" stroke="black" stroke-width="0.5" shape-rendering="crispEdges"/>
</g>
<path d="M101.25 222C101.25 222.138 101.362 222.25 101.5 222.25C101.638 222.25 101.75 222.138 101.75 222L101.25 222ZM101.25 195L101.25 222L101.75 222L101.75 195L101.25 195Z" fill="black"/>
<path d="M104.25 222C104.25 222.138 104.362 222.25 104.5 222.25C104.638 222.25 104.75 222.138 104.75 222L104.25 222ZM104.25 195L104.25 222L104.75 222L104.75 195L104.25 195Z" fill="black"/>
<path d="M102.75 222.5C102.75 222.638 102.862 222.75 103 222.75C103.138 222.75 103.25 222.638 103.25 222.5L102.75 222.5ZM102.75 195L102.75 222.5L103.25 222.5L103.25 195L102.75 195Z" fill="black"/>
<g filter="url(#filter5_ii_21_995)">
<circle cx="103" cy="181" r="4" fill="#C6C0BB"/>
</g>
<circle cx="103" cy="181" r="3.5" stroke="black"/>
</g>
<defs>
<filter id="filter0_dii_21_995" x="-0.464111" y="0.184326" width="339.747" height="401.297" filterUnits="userSpaceOnUse" color-interpolation-filters="sRGB">
<feFlood flood-opacity="0" result="BackgroundImageFix"/>
<feColorMatrix in="SourceAlpha" type="matrix" values="0 0 0 0 0 0 0 0 0 0 0 0 0 0 0 0 0 0 127 0" result="hardAlpha"/>
<feOffset dx="10" dy="3"/>
<feGaussianBlur stdDeviation="5"/>
<feColorMatrix type="matrix" values="0 0 0 0 0.74902 0 0 0 0 0.717647 0 0 0 0 0.690196 0 0 0 1 0"/>
<feBlend mode="normal" in2="BackgroundImageFix" result="effect1_dropShadow_21_995"/>
<feBlend mode="normal" in="SourceGraphic" in2="effect1_dropShadow_21_995" result="shape"/>
<feColorMatrix in="SourceAlpha" type="matrix" values="0 0 0 0 0 0 0 0 0 0 0 0 0 0 0 0 0 0 127 0" result="hardAlpha"/>
<feOffset dx="1" dy="1"/>
<feGaussianBlur stdDeviation="5"/>
<feComposite in2="hardAlpha" operator="arithmetic" k2="-1" k3="1"/>
<feColorMatrix type="matrix" values="0 0 0 0 0 0 0 0 0 0 0 0 0 0 0 0 0 0 0.5 0"/>
<feBlend mode="normal" in2="shape" result="effect2_innerShadow_21_995"/>
<feColorMatrix in="SourceAlpha" type="matrix" values="0 0 0 0 0 0 0 0 0 0 0 0 0 0 0 0 0 0 127 0" result="hardAlpha"/>
<feOffset dx="-1" dy="-1"/>
<feGaussianBlur stdDeviation="5"/>
<feComposite in2="hardAlpha" operator="arithmetic" k2="-1" k3="1"/>
<feColorMatrix type="matrix" values="0 0 0 0 0 0 0 0 0 0 0 0 0 0 0 0 0 0 0.3 0"/>
<feBlend mode="normal" in2="effect2_innerShadow_21_995" result="effect3_innerShadow_21_995"/>
</filter>
<filter id="filter1_ii_21_995" x="9.79083" y="16.4393" width="300.237" height="362.787" filterUnits="userSpaceOnUse" color-interpolation-filters="sRGB">
<feFlood flood-opacity="0" result="BackgroundImageFix"/>
<feBlend mode="normal" in="SourceGraphic" in2="BackgroundImageFix" result="shape"/>
<feColorMatrix in="SourceAlpha" type="matrix" values="0 0 0 0 0 0 0 0 0 0 0 0 0 0 0 0 0 0 127 0" result="hardAlpha"/>
<feOffset dx="3" dy="3"/>
<feComposite in2="hardAlpha" operator="arithmetic" k2="-1" k3="1"/>
<feColorMatrix type="matrix" values="0 0 0 0 0 0 0 0 0 0 0 0 0 0 0 0 0 0 0.1 0"/>
<feBlend mode="normal" in2="shape" result="effect1_innerShadow_21_995"/>
<feColorMatrix in="SourceAlpha" type="matrix" values="0 0 0 0 0 0 0 0 0 0 0 0 0 0 0 0 0 0 127 0" result="hardAlpha"/>
<feOffset dx="-3" dy="-3"/>
<feComposite in2="hardAlpha" operator="arithmetic" k2="-1" k3="1"/>
<feColorMatrix type="matrix" values="0 0 0 0 0 0 0 0 0 0 0 0 0 0 0 0 0 0 0.1 0"/>
<feBlend mode="normal" in2="effect1_innerShadow_21_995" result="effect2_innerShadow_21_995"/>
</filter>
<filter id="filter2_d_21_995" x="60" y="93.1863" width="209" height="137.814" filterUnits="userSpaceOnUse" color-interpolation-filters="sRGB">
<feFlood flood-opacity="0" result="BackgroundImageFix"/>
<feColorMatrix in="SourceAlpha" type="matrix" values="0 0 0 0 0 0 0 0 0 0 0 0 0 0 0 0 0 0 127 0" result="hardAlpha"/>
<feOffset dy="4"/>
<feGaussianBlur stdDeviation="2"/>
<feComposite in2="hardAlpha" operator="out"/>
<feColorMatrix type="matrix" values="0 0 0 0 0 0 0 0 0 0 0 0 0 0 0 0 0 0 0.25 0"/>
<feBlend mode="normal" in2="BackgroundImageFix" result="effect1_dropShadow_21_995"/>
<feBlend mode="normal" in="SourceGraphic" in2="effect1_dropShadow_21_995" result="shape"/>
</filter>
<filter id="filter3_d_21_995" x="97.95" y="120.874" width="10.1" height="79.1759" filterUnits="userSpaceOnUse" color-interpolation-filters="sRGB">
<feFlood flood-opacity="0" result="BackgroundImageFix"/>
<feColorMatrix in="SourceAlpha" type="matrix" values="0 0 0 0 0 0 0 0 0 0 0 0 0 0 0 0 0 0 127 0" result="hardAlpha"/>
<feOffset dy="4"/>
<feGaussianBlur stdDeviation="2"/>
<feComposite in2="hardAlpha" operator="out"/>
<feColorMatrix type="matrix" values="0 0 0 0 0 0 0 0 0 0 0 0 0 0 0 0 0 0 0.25 0"/>
<feBlend mode="normal" in2="BackgroundImageFix" result="effect1_dropShadow_21_995"/>
<feBlend mode="normal" in="SourceGraphic" in2="effect1_dropShadow_21_995" result="shape"/>
</filter>
<filter id="filter4_d_21_995" x="96" y="195" width="14" height="36" filterUnits="userSpaceOnUse" color-interpolation-filters="sRGB">
<feFlood flood-opacity="0" result="BackgroundImageFix"/>
<feColorMatrix in="SourceAlpha" type="matrix" values="0 0 0 0 0 0 0 0 0 0 0 0 0 0 0 0 0 0 127 0" result="hardAlpha"/>
<feOffset dy="4"/>
<feGaussianBlur stdDeviation="2"/>
<feComposite in2="hardAlpha" operator="out"/>
<feColorMatrix type="matrix" values="0 0 0 0 0 0 0 0 0 0 0 0 0 0 0 0 0 0 0.25 0"/>
<feBlend mode="normal" in2="BackgroundImageFix" result="effect1_dropShadow_21_995"/>
<feBlend mode="normal" in="SourceGraphic" in2="effect1_dropShadow_21_995" result="shape"/>
</filter>
<filter id="filter5_ii_21_995" x="99" y="177" width="9" height="12" filterUnits="userSpaceOnUse" color-interpolation-filters="sRGB">
<feFlood flood-opacity="0" result="BackgroundImageFix"/>
<feBlend mode="normal" in="SourceGraphic" in2="BackgroundImageFix" result="shape"/>
<feColorMatrix in="SourceAlpha" type="matrix" values="0 0 0 0 0 0 0 0 0 0 0 0 0 0 0 0 0 0 127 0" result="hardAlpha"/>
<feOffset dx="1" dy="1"/>
<feGaussianBlur stdDeviation="2"/>
<feComposite in2="hardAlpha" operator="arithmetic" k2="-1" k3="1"/>
<feColorMatrix type="matrix" values="0 0 0 0 0 0 0 0 0 0 0 0 0 0 0 0 0 0 0.25 0"/>
<feBlend mode="normal" in2="shape" result="effect1_innerShadow_21_995"/>
<feColorMatrix in="SourceAlpha" type="matrix" values="0 0 0 0 0 0 0 0 0 0 0 0 0 0 0 0 0 0 127 0" result="hardAlpha"/>
<feOffset dy="4"/>
<feGaussianBlur stdDeviation="2"/>
<feComposite in2="hardAlpha" operator="arithmetic" k2="-1" k3="1"/>
<feColorMatrix type="matrix" values="0 0 0 0 0 0 0 0 0 0 0 0 0 0 0 0 0 0 0.25 0"/>
<feBlend mode="normal" in2="effect1_innerShadow_21_995" result="effect2_innerShadow_21_995"/>
</filter>
<linearGradient id="paint0_linear_21_995" x1="3.53589" y1="197.353" x2="316.283" y2="197.353" gradientUnits="userSpaceOnUse">
<stop stop-color="#8B5E35"/>
<stop offset="1" stop-color="#734924"/>
</linearGradient>
<linearGradient id="paint1_linear_21_995" x1="4.23088" y1="197.353" x2="316.283" y2="197.353" gradientUnits="userSpaceOnUse">
<stop stop-color="#8B5E35"/>
<stop offset="1" stop-color="#734924"/>
</linearGradient>
<linearGradient id="paint2_linear_21_995" x1="221.5" y1="118" x2="91" y2="143.5" gradientUnits="userSpaceOnUse">
<stop/>
<stop offset="1" stop-color="#252525"/>
</linearGradient>
<linearGradient id="paint3_linear_21_995" x1="100.5" y1="133.5" x2="106.5" y2="192" gradientUnits="userSpaceOnUse">
<stop stop-color="#B4936B"/>
<stop stop-color="#B4936B"/>
<stop offset="0.085" stop-color="#B3926A"/>
<stop offset="0.285" stop-color="#C1B09A"/>
<stop offset="1"/>
</linearGradient>
<linearGradient id="paint4_linear_21_995" x1="103" y1="122.5" x2="103" y2="122" gradientUnits="userSpaceOnUse">
<stop offset="0.9999"/>
<stop offset="1" stop-color="#666666" stop-opacity="0"/>
</linearGradient>
</defs>
</svg>
