<svg width="402" height="589" viewBox="0 0 402 589" fill="none" xmlns="http://www.w3.org/2000/svg">
<g filter="url(#filter0_dii_54_721)">
<rect x="3" y="10" width="375.297" height="562.945" fill="url(#paint0_linear_54_721)"/>
<rect x="1.5" y="8.5" width="378.297" height="565.945" stroke="url(#paint1_linear_54_721)" stroke-width="3"/>
</g>
<g filter="url(#filter1_ii_54_721)">
<rect x="9.25488" y="16.2549" width="362.787" height="550.435" rx="2" fill="url(#paint2_linear_54_721)"/>
</g>
<path d="M102.74 541.523V541.013H104.06C104.62 541.013 104.9 540.723 104.9 540.143V522.293C104.9 521.713 104.63 521.423 104.09 521.423H102.56V520.913H116.63V523.403H116.09V521.423H105.44V530.063H113.54V528.443H114.08V532.193H113.54V530.573H105.44V541.013H116.09V539.303H116.63V541.523H102.74ZM119.633 541.523V541.013H121.733L128.753 531.053L121.883 521.423H119.633V520.913H124.703V521.423H122.543L129.083 530.603L135.623 521.423H133.433V520.913H138.503V521.423H136.283L129.413 531.053L136.433 541.013H138.503V541.523H133.433V541.013H135.773L129.083 531.533L122.393 541.013H124.703V541.523H119.633ZM141.203 541.523V541.013H142.703C143.263 541.013 143.543 540.733 143.543 540.173V522.293C143.543 521.713 143.273 521.423 142.733 521.423H141.203V520.913H148.883C150.823 520.913 152.333 521.153 153.413 521.633C154.513 522.113 155.283 522.763 155.723 523.583C156.183 524.383 156.413 525.293 156.413 526.313C156.413 527.213 156.173 528.053 155.693 528.833C155.213 529.613 154.443 530.243 153.383 530.723C152.323 531.203 150.923 531.443 149.183 531.443C148.143 531.443 147.193 531.393 146.333 531.293C145.493 531.193 144.743 531.073 144.083 530.933V540.983H147.593V541.523H141.203ZM149.183 530.933C150.823 530.933 152.123 530.723 153.083 530.303C154.063 529.863 154.773 529.293 155.213 528.593C155.653 527.873 155.873 527.113 155.873 526.313C155.873 525.393 155.673 524.573 155.273 523.853C154.873 523.113 154.163 522.523 153.143 522.083C152.143 521.643 150.723 521.423 148.883 521.423H144.083V530.423C144.723 530.543 145.463 530.663 146.303 530.783C147.163 530.883 148.123 530.933 149.183 530.933ZM158.404 541.523V541.013H159.724C160.284 541.013 160.564 540.723 160.564 540.143V522.293C160.564 521.713 160.294 521.423 159.754 521.423H158.224V520.913H172.294V523.403H171.754V521.423H161.104V530.063H169.204V528.443H169.744V532.193H169.204V530.573H161.104V541.013H171.754V539.303H172.294V541.523H158.404ZM175.598 541.523V541.013H177.098C177.658 541.013 177.938 540.733 177.938 540.173V522.293C177.938 521.713 177.668 521.423 177.128 521.423H175.598V520.913H183.278C185.218 520.913 186.728 521.153 187.808 521.633C188.908 522.113 189.678 522.763 190.118 523.583C190.578 524.383 190.808 525.293 190.808 526.313C190.808 527.173 190.588 527.983 190.148 528.743C189.708 529.483 189.008 530.103 188.048 530.603C187.108 531.083 185.868 531.353 184.328 531.413L189.968 541.013H192.278V541.523H186.968V541.013H189.338L183.698 531.443H183.578C182.538 531.443 181.588 531.393 180.728 531.293C179.888 531.193 179.138 531.073 178.478 530.933V540.983H181.988V541.523H175.598ZM183.578 530.933C185.218 530.933 186.518 530.723 187.478 530.303C188.458 529.863 189.168 529.293 189.608 528.593C190.048 527.873 190.268 527.113 190.268 526.313C190.268 525.393 190.068 524.573 189.668 523.853C189.268 523.113 188.558 522.523 187.538 522.083C186.538 521.643 185.118 521.423 183.278 521.423H178.478V530.423C179.118 530.543 179.858 530.663 180.698 530.783C181.558 530.883 182.518 530.933 183.578 530.933ZM193.879 541.523V541.013H196.969C197.289 541.013 197.509 540.943 197.629 540.803C197.749 540.663 197.809 540.443 197.809 540.143V521.423H193.909V520.913H202.219V521.423H199.189C198.869 521.423 198.649 521.493 198.529 521.633C198.409 521.773 198.349 521.993 198.349 522.293V541.013H202.219V541.523H193.879ZM205.69 541.523V541.013H207.01C207.57 541.013 207.85 540.723 207.85 540.143V522.293C207.85 521.713 207.58 521.423 207.04 521.423H205.51V520.913H219.58V523.403H219.04V521.423H208.39V530.063H216.49V528.443H217.03V532.193H216.49V530.573H208.39V541.013H219.04V539.303H219.58V541.523H205.69ZM222.29 541.523V541.013H223.73C224.05 541.013 224.27 540.943 224.39 540.803C224.51 540.663 224.57 540.443 224.57 540.143V521.423H222.35V520.913H227.33V521.423H225.23L238.97 540.263V521.423H236.69V520.913H241.73V521.423H240.35C240.03 521.423 239.81 521.493 239.69 521.633C239.57 521.773 239.51 521.993 239.51 522.293V541.013H241.73V541.523H236.69V541.013H238.85L225.11 522.173V541.013H227.33V541.523H222.29ZM254.286 542.033C252.266 542.033 250.476 541.563 248.916 540.623C247.376 539.683 246.166 538.393 245.286 536.753C244.406 535.093 243.966 533.213 243.966 531.113C243.966 529.533 244.246 528.093 244.806 526.793C245.366 525.473 246.126 524.343 247.086 523.403C248.046 522.443 249.146 521.703 250.386 521.183C251.626 520.663 252.926 520.403 254.286 520.403C255.846 520.403 257.286 520.693 258.606 521.273C259.926 521.833 260.916 522.623 261.576 523.643C261.856 524.083 262.026 524.443 262.086 524.723C262.146 525.003 262.126 525.223 262.026 525.383C261.886 525.623 261.666 525.713 261.366 525.653C261.086 525.573 260.946 525.373 260.946 525.053C260.946 524.893 260.986 524.763 261.066 524.663C261.146 524.563 261.196 524.453 261.216 524.333C261.256 524.213 261.196 524.043 261.036 523.823C260.416 522.903 259.496 522.193 258.276 521.693C257.056 521.173 255.726 520.913 254.286 520.913C253.006 520.913 251.776 521.163 250.596 521.663C249.436 522.163 248.396 522.863 247.476 523.763C246.556 524.663 245.826 525.743 245.286 527.003C244.766 528.243 244.506 529.613 244.506 531.113C244.506 533.113 244.916 534.893 245.736 536.453C246.576 538.013 247.736 539.243 249.216 540.143C250.696 541.043 252.386 541.503 254.286 541.523C255.766 541.543 257.116 541.273 258.336 540.713C259.556 540.153 260.596 539.383 261.456 538.403L261.876 538.763C260.956 539.803 259.846 540.613 258.546 541.193C257.266 541.753 255.846 542.033 254.286 542.033ZM264.723 541.523V541.013H266.043C266.603 541.013 266.883 540.723 266.883 540.143V522.293C266.883 521.713 266.613 521.423 266.073 521.423H264.543V520.913H278.613V523.403H278.073V521.423H267.423V530.063H275.523V528.443H276.063V532.193H275.523V530.573H267.423V541.013H278.073V539.303H278.613V541.523H264.723Z" fill="black"/>
<path d="M9 259C114.5 312 112 425.5 190.5 425.5C269 425.5 277 299.5 372 259V567H9V259Z" fill="#9E8B70"/>
<path fill-rule="evenodd" clip-rule="evenodd" d="M250.411 263.659C250.229 263.455 250.245 263.142 250.447 262.957C270.371 244.719 283 217.695 283 187.5C283 132.489 241.082 88 189.5 88C137.918 88 96 132.489 96 187.5C96 217.418 108.399 244.224 128.007 262.454C128.208 262.64 128.222 262.953 128.038 263.157C127.852 263.363 127.533 263.38 127.33 263.19C107.516 244.768 95 217.688 95 187.5C95 131.995 137.309 87 189.5 87C241.691 87 284 131.995 284 187.5C284 217.967 271.252 245.268 251.119 263.699C250.914 263.887 250.595 263.868 250.411 263.659Z" fill="url(#paint3_linear_54_721)"/>
<mask id="mask0_54_721" style="mask-type:alpha" maskUnits="userSpaceOnUse" x="185" y="113" width="8" height="20">
<circle cx="189" cy="115" r="2" fill="#030701"/>
<circle cx="189" cy="129" r="4" fill="#030701"/>
</mask>
<g mask="url(#mask0_54_721)">
<rect x="183" y="112" width="13" height="22" fill="url(#paint4_linear_54_721)"/>
</g>
<path d="M225 182.5C225 219 191 208 190.5 266C190.5 267 190.5 432.5 190 432.5C189.5 432.5 190 267 190 266C190 207.998 152 219 152 182.5C152 162.342 168.342 146 188.5 146C208.658 146 225 162.342 225 182.5Z" fill="url(#paint5_linear_54_721)"/>
<circle cx="190" cy="434" r="4" fill="black"/>
<circle cx="190" cy="443" r="3" fill="black"/>
<circle cx="190" cy="450" r="2" fill="black"/>
<circle cx="190" cy="455" r="1" fill="black"/>
<circle cx="190" cy="459" r="1" fill="black"/>
<circle cx="190" cy="463" r="1" fill="black"/>
<path d="M231.481 235.735C233.888 277.856 192.72 253.153 191 301C190.032 270.341 192.72 253.153 202.541 240.154L230.657 209.63C230.657 209.63 230.872 225.075 231.481 235.735Z" fill="url(#paint6_linear_54_721)"/>
<path d="M191.73 305.644C193.73 257.144 226.753 275.975 231.252 254.975C231.253 302.975 201.752 276.975 191.73 305.644Z" fill="url(#paint7_linear_54_721)"/>
<path d="M189.108 305.644C187.108 257.144 154.085 275.975 149.585 254.975C149.585 302.975 179.085 276.975 189.108 305.644Z" fill="url(#paint8_linear_54_721)"/>
<path d="M148.613 235.465C146.206 277.586 187.374 252.883 189.094 300.73C190.062 270.071 187.374 252.883 177.553 239.884L149.437 209.36C149.437 209.36 149.222 224.805 148.613 235.465Z" fill="url(#paint9_linear_54_721)"/>
<path d="M102.149 542V541.49H103.469C104.029 541.49 104.309 541.2 104.309 540.62V522.77C104.309 522.19 104.039 521.9 103.499 521.9H101.969V521.39H116.039V523.88H115.499V521.9H104.849V530.54H112.949V528.92H113.489V532.67H112.949V531.05H104.849V541.49H115.499V539.78H116.039V542H102.149ZM119.042 542V541.49H121.142L128.162 531.53L121.292 521.9H119.042V521.39H124.112V521.9H121.952L128.492 531.08L135.032 521.9H132.842V521.39H137.912V521.9H135.692L128.822 531.53L135.842 541.49H137.912V542H132.842V541.49H135.182L128.492 532.01L121.802 541.49H124.112V542H119.042ZM140.611 542V541.49H142.111C142.671 541.49 142.951 541.21 142.951 540.65V522.77C142.951 522.19 142.681 521.9 142.141 521.9H140.611V521.39H148.291C150.231 521.39 151.741 521.63 152.821 522.11C153.921 522.59 154.691 523.24 155.131 524.06C155.591 524.86 155.821 525.77 155.821 526.79C155.821 527.69 155.581 528.53 155.101 529.31C154.621 530.09 153.851 530.72 152.791 531.2C151.731 531.68 150.331 531.92 148.591 531.92C147.551 531.92 146.601 531.87 145.741 531.77C144.901 531.67 144.151 531.55 143.491 531.41V541.46H147.001V542H140.611ZM148.591 531.41C150.231 531.41 151.531 531.2 152.491 530.78C153.471 530.34 154.181 529.77 154.621 529.07C155.061 528.35 155.281 527.59 155.281 526.79C155.281 525.87 155.081 525.05 154.681 524.33C154.281 523.59 153.571 523 152.551 522.56C151.551 522.12 150.131 521.9 148.291 521.9H143.491V530.9C144.131 531.02 144.871 531.14 145.711 531.26C146.571 531.36 147.531 531.41 148.591 531.41ZM157.813 542V541.49H159.133C159.693 541.49 159.973 541.2 159.973 540.62V522.77C159.973 522.19 159.703 521.9 159.163 521.9H157.633V521.39H171.703V523.88H171.163V521.9H160.513V530.54H168.613V528.92H169.153V532.67H168.613V531.05H160.513V541.49H171.163V539.78H171.703V542H157.813ZM175.006 542V541.49H176.506C177.066 541.49 177.346 541.21 177.346 540.65V522.77C177.346 522.19 177.076 521.9 176.536 521.9H175.006V521.39H182.686C184.626 521.39 186.136 521.63 187.216 522.11C188.316 522.59 189.086 523.24 189.526 524.06C189.986 524.86 190.216 525.77 190.216 526.79C190.216 527.65 189.996 528.46 189.556 529.22C189.116 529.96 188.416 530.58 187.456 531.08C186.516 531.56 185.276 531.83 183.736 531.89L189.376 541.49H191.686V542H186.376V541.49H188.746L183.106 531.92H182.986C181.946 531.92 180.996 531.87 180.136 531.77C179.296 531.67 178.546 531.55 177.886 531.41V541.46H181.396V542H175.006ZM182.986 531.41C184.626 531.41 185.926 531.2 186.886 530.78C187.866 530.34 188.576 529.77 189.016 529.07C189.456 528.35 189.676 527.59 189.676 526.79C189.676 525.87 189.476 525.05 189.076 524.33C188.676 523.59 187.966 523 186.946 522.56C185.946 522.12 184.526 521.9 182.686 521.9H177.886V530.9C178.526 531.02 179.266 531.14 180.106 531.26C180.966 531.36 181.926 531.41 182.986 531.41ZM193.287 542V541.49H196.377C196.697 541.49 196.917 541.42 197.037 541.28C197.157 541.14 197.217 540.92 197.217 540.62V521.9H193.317V521.39H201.627V521.9H198.597C198.277 521.9 198.057 521.97 197.937 522.11C197.817 522.25 197.757 522.47 197.757 522.77V541.49H201.627V542H193.287ZM205.098 542V541.49H206.418C206.978 541.49 207.258 541.2 207.258 540.62V522.77C207.258 522.19 206.988 521.9 206.448 521.9H204.918V521.39H218.988V523.88H218.448V521.9H207.798V530.54H215.898V528.92H216.438V532.67H215.898V531.05H207.798V541.49H218.448V539.78H218.988V542H205.098ZM221.698 542V541.49H223.138C223.458 541.49 223.678 541.42 223.798 541.28C223.918 541.14 223.978 540.92 223.978 540.62V521.9H221.758V521.39H226.738V521.9H224.638L238.378 540.74V521.9H236.098V521.39H241.138V521.9H239.758C239.438 521.9 239.218 521.97 239.098 522.11C238.978 522.25 238.918 522.47 238.918 522.77V541.49H241.138V542H236.098V541.49H238.258L224.518 522.65V541.49H226.738V542H221.698ZM253.694 542.51C251.674 542.51 249.884 542.04 248.324 541.1C246.784 540.16 245.574 538.87 244.694 537.23C243.814 535.57 243.374 533.69 243.374 531.59C243.374 530.01 243.654 528.57 244.214 527.27C244.774 525.95 245.534 524.82 246.494 523.88C247.454 522.92 248.554 522.18 249.794 521.66C251.034 521.14 252.334 520.88 253.694 520.88C255.254 520.88 256.694 521.17 258.014 521.75C259.334 522.31 260.324 523.1 260.984 524.12C261.264 524.56 261.434 524.92 261.494 525.2C261.554 525.48 261.534 525.7 261.434 525.86C261.294 526.1 261.074 526.19 260.774 526.13C260.494 526.05 260.354 525.85 260.354 525.53C260.354 525.37 260.394 525.24 260.474 525.14C260.554 525.04 260.604 524.93 260.624 524.81C260.664 524.69 260.604 524.52 260.444 524.3C259.824 523.38 258.904 522.67 257.684 522.17C256.464 521.65 255.134 521.39 253.694 521.39C252.414 521.39 251.184 521.64 250.004 522.14C248.844 522.64 247.804 523.34 246.884 524.24C245.964 525.14 245.234 526.22 244.694 527.48C244.174 528.72 243.914 530.09 243.914 531.59C243.914 533.59 244.324 535.37 245.144 536.93C245.984 538.49 247.144 539.72 248.624 540.62C250.104 541.52 251.794 541.98 253.694 542C255.174 542.02 256.524 541.75 257.744 541.19C258.964 540.63 260.004 539.86 260.864 538.88L261.284 539.24C260.364 540.28 259.254 541.09 257.954 541.67C256.674 542.23 255.254 542.51 253.694 542.51ZM264.131 542V541.49H265.451C266.011 541.49 266.291 541.2 266.291 540.62V522.77C266.291 522.19 266.021 521.9 265.481 521.9H263.951V521.39H278.021V523.88H277.481V521.9H266.831V530.54H274.931V528.92H275.471V532.67H274.931V531.05H266.831V541.49H277.481V539.78H278.021V542H264.131Z" fill="black"/>
<defs>
<filter id="filter0_dii_54_721" x="-1" y="0" width="402.297" height="588.945" filterUnits="userSpaceOnUse" color-interpolation-filters="sRGB">
<feFlood flood-opacity="0" result="BackgroundImageFix"/>
<feColorMatrix in="SourceAlpha" type="matrix" values="0 0 0 0 0 0 0 0 0 0 0 0 0 0 0 0 0 0 127 0" result="hardAlpha"/>
<feOffset dx="10" dy="3"/>
<feGaussianBlur stdDeviation="5"/>
<feColorMatrix type="matrix" values="0 0 0 0 0.74902 0 0 0 0 0.717647 0 0 0 0 0.690196 0 0 0 1 0"/>
<feBlend mode="normal" in2="BackgroundImageFix" result="effect1_dropShadow_54_721"/>
<feBlend mode="normal" in="SourceGraphic" in2="effect1_dropShadow_54_721" result="shape"/>
<feColorMatrix in="SourceAlpha" type="matrix" values="0 0 0 0 0 0 0 0 0 0 0 0 0 0 0 0 0 0 127 0" result="hardAlpha"/>
<feOffset dx="1" dy="1"/>
<feGaussianBlur stdDeviation="5"/>
<feComposite in2="hardAlpha" operator="arithmetic" k2="-1" k3="1"/>
<feColorMatrix type="matrix" values="0 0 0 0 0 0 0 0 0 0 0 0 0 0 0 0 0 0 0.5 0"/>
<feBlend mode="normal" in2="shape" result="effect2_innerShadow_54_721"/>
<feColorMatrix in="SourceAlpha" type="matrix" values="0 0 0 0 0 0 0 0 0 0 0 0 0 0 0 0 0 0 127 0" result="hardAlpha"/>
<feOffset dx="-1" dy="-1"/>
<feGaussianBlur stdDeviation="5"/>
<feComposite in2="hardAlpha" operator="arithmetic" k2="-1" k3="1"/>
<feColorMatrix type="matrix" values="0 0 0 0 0 0 0 0 0 0 0 0 0 0 0 0 0 0 0.3 0"/>
<feBlend mode="normal" in2="effect2_innerShadow_54_721" result="effect3_innerShadow_54_721"/>
</filter>
<filter id="filter1_ii_54_721" x="9.25488" y="16.2549" width="362.787" height="550.435" filterUnits="userSpaceOnUse" color-interpolation-filters="sRGB">
<feFlood flood-opacity="0" result="BackgroundImageFix"/>
<feBlend mode="normal" in="SourceGraphic" in2="BackgroundImageFix" result="shape"/>
<feColorMatrix in="SourceAlpha" type="matrix" values="0 0 0 0 0 0 0 0 0 0 0 0 0 0 0 0 0 0 127 0" result="hardAlpha"/>
<feOffset dx="3" dy="3"/>
<feComposite in2="hardAlpha" operator="arithmetic" k2="-1" k3="1"/>
<feColorMatrix type="matrix" values="0 0 0 0 0 0 0 0 0 0 0 0 0 0 0 0 0 0 0.1 0"/>
<feBlend mode="normal" in2="shape" result="effect1_innerShadow_54_721"/>
<feColorMatrix in="SourceAlpha" type="matrix" values="0 0 0 0 0 0 0 0 0 0 0 0 0 0 0 0 0 0 127 0" result="hardAlpha"/>
<feOffset dx="-3" dy="-3"/>
<feComposite in2="hardAlpha" operator="arithmetic" k2="-1" k3="1"/>
<feColorMatrix type="matrix" values="0 0 0 0 0 0 0 0 0 0 0 0 0 0 0 0 0 0 0.1 0"/>
<feBlend mode="normal" in2="effect1_innerShadow_54_721" result="effect2_innerShadow_54_721"/>
</filter>
<linearGradient id="paint0_linear_54_721" x1="3" y1="290.753" x2="378.297" y2="290.753" gradientUnits="userSpaceOnUse">
<stop stop-color="#8B5E35"/>
<stop offset="1" stop-color="#734924"/>
</linearGradient>
<linearGradient id="paint1_linear_54_721" x1="3.83399" y1="290.753" x2="378.297" y2="290.753" gradientUnits="userSpaceOnUse">
<stop stop-color="#8B5E35"/>
<stop offset="1" stop-color="#734924"/>
</linearGradient>
<linearGradient id="paint2_linear_54_721" x1="191" y1="284" x2="191" y2="18.5" gradientUnits="userSpaceOnUse">
<stop stop-color="#EDD5B5"/>
<stop offset="1" stop-color="#FFECD2"/>
</linearGradient>
<linearGradient id="paint3_linear_54_721" x1="189.5" y1="87" x2="189.5" y2="263.828" gradientUnits="userSpaceOnUse">
<stop offset="0.0299504" stop-color="#734419"/>
<stop offset="1" stop-color="#9F7856"/>
</linearGradient>
<linearGradient id="paint4_linear_54_721" x1="189" y1="133.353" x2="189" y2="113.294" gradientUnits="userSpaceOnUse">
<stop offset="0.33" stop-color="#030701"/>
<stop offset="1" stop-color="#030701" stop-opacity="0.69"/>
</linearGradient>
<linearGradient id="paint5_linear_54_721" x1="188.5" y1="146" x2="188.5" y2="433" gradientUnits="userSpaceOnUse">
<stop stop-color="#734419"/>
<stop offset="0.225" stop-color="#9F7856"/>
<stop offset="0.99"/>
</linearGradient>
<linearGradient id="paint6_linear_54_721" x1="240.557" y1="217.851" x2="179.463" y2="291.419" gradientUnits="userSpaceOnUse">
<stop stop-color="#030701"/>
<stop offset="1" stop-color="#2F6D10"/>
</linearGradient>
<linearGradient id="paint7_linear_54_721" x1="250.49" y1="258.299" x2="176.167" y2="318.472" gradientUnits="userSpaceOnUse">
<stop stop-color="#030701"/>
<stop offset="1" stop-color="#2F6D10"/>
</linearGradient>
<linearGradient id="paint8_linear_54_721" x1="130.348" y1="258.299" x2="204.671" y2="318.472" gradientUnits="userSpaceOnUse">
<stop stop-color="#030701"/>
<stop offset="1" stop-color="#2F6D10"/>
</linearGradient>
<linearGradient id="paint9_linear_54_721" x1="139.537" y1="217.581" x2="200.631" y2="291.149" gradientUnits="userSpaceOnUse">
<stop stop-color="#030701"/>
<stop offset="1" stop-color="#2F6D10"/>
</linearGradient>
</defs>
</svg>
