<svg width="315" height="402" viewBox="0 0 315 402" fill="none" xmlns="http://www.w3.org/2000/svg">
<g filter="url(#filter0_dii_21_1003)">
<rect x="3.89209" y="10.1029" width="287.728" height="375.297" fill="url(#paint0_linear_21_1003)"/>
<rect x="2.39209" y="8.60287" width="290.728" height="378.297" stroke="url(#paint1_linear_21_1003)" stroke-width="3"/>
</g>
<g filter="url(#filter1_ii_21_1003)">
<rect x="10.147" y="16.3578" width="275.218" height="362.787" rx="2" fill="#040404"/>
</g>
<path d="M169.216 190.326L169.216 190.327L169.215 190.327L169.215 190.328L168.525 191.058L168.534 192.064C168.601 199.918 168.631 205.638 168.264 209.885C167.892 214.187 167.141 216.462 166.056 217.798C165.059 219.026 163.442 219.86 160.144 220.313C156.805 220.772 152.288 220.778 145.939 220.778C140.249 220.778 136.275 220.771 133.357 220.319C130.528 219.881 129.196 219.096 128.348 217.915C127.375 216.56 126.703 214.238 126.357 209.902C126.016 205.633 126.014 199.896 126.014 192.043V190.948L125.211 190.207L125.211 190.207L125.211 190.207L125.21 190.206L125.204 190.2L125.169 190.167C125.136 190.136 125.084 190.087 125.014 190.02C124.875 189.886 124.664 189.68 124.394 189.408C123.852 188.862 123.069 188.047 122.125 186.99C120.235 184.874 117.711 181.8 115.188 177.984C110.118 170.313 105.191 159.853 105.191 148.261C105.191 125.756 123.435 107.513 145.939 107.513C168.444 107.513 186.688 125.756 186.688 148.261C186.688 159.942 182.362 170.448 177.945 178.114C175.744 181.932 173.543 185.006 171.898 187.12C171.076 188.176 170.394 188.989 169.924 189.533C169.688 189.805 169.506 190.009 169.385 190.143C169.325 190.209 169.28 190.258 169.251 190.289L169.221 190.322L169.216 190.326Z" stroke="#F2F2F2" stroke-width="5"/>
<line x1="128.32" y1="195.95" x2="166.229" y2="195.95" stroke="#F2F2F2" stroke-width="5"/>
<line x1="128.32" y1="207.696" x2="166.229" y2="207.696" stroke="#F2F2F2" stroke-width="5"/>
<line x1="146.643" y1="194.713" x2="146.643" y2="156.804" stroke="#F2F2F2" stroke-width="5"/>
<path fill-rule="evenodd" clip-rule="evenodd" d="M126.527 145.057C128.282 154.477 136.545 161.609 146.473 161.609C156.402 161.609 164.665 154.477 166.419 145.057H161.302C159.635 151.695 153.628 156.609 146.473 156.609C139.318 156.609 133.312 151.695 131.644 145.057H126.527Z" fill="#F2F2F2"/>
<path fill-rule="evenodd" clip-rule="evenodd" d="M134.26 221.943C134.216 222.382 134.193 222.827 134.193 223.278C134.193 230.502 140.05 236.359 147.274 236.359C154.499 236.359 160.355 230.502 160.355 223.278C160.355 222.827 160.333 222.382 160.288 221.943H155.246C155.318 222.377 155.355 222.823 155.355 223.278C155.355 227.741 151.737 231.359 147.274 231.359C142.811 231.359 139.193 227.741 139.193 223.278C139.193 222.823 139.23 222.377 139.303 221.943H134.26Z" fill="#F2F2F2"/>
<line x1="190.053" y1="182.432" x2="205.205" y2="197.584" stroke="#F2F2F2" stroke-width="5" stroke-linecap="round"/>
<line x1="102.157" y1="184.366" x2="87.0051" y2="199.518" stroke="#F2F2F2" stroke-width="5" stroke-linecap="round"/>
<line x1="191.323" y1="120.165" x2="206.475" y2="105.013" stroke="#F2F2F2" stroke-width="5" stroke-linecap="round"/>
<line x1="100.223" y1="121.564" x2="85.0714" y2="106.412" stroke="#F2F2F2" stroke-width="5" stroke-linecap="round"/>
<line x1="175.537" y1="94.0149" x2="180.859" y2="87.6949" stroke="#F2F2F2" stroke-width="5" stroke-linecap="round"/>
<line x1="115.553" y1="95.2534" x2="111.267" y2="88.6663" stroke="#F2F2F2" stroke-width="5" stroke-linecap="round"/>
<line x1="146.109" y1="89.1643" x2="146.109" y2="70.1375" stroke="#F2F2F2" stroke-width="5" stroke-linecap="round"/>
<line x1="199.696" y1="150.566" x2="210.18" y2="150.566" stroke="#F2F2F2" stroke-width="5" stroke-linecap="round"/>
<line x1="85.9696" y1="150.566" x2="96.4535" y2="150.566" stroke="#F2F2F2" stroke-width="5" stroke-linecap="round"/>
<path d="M71.6123 346V345.49H73.1123C73.6723 345.49 73.9523 345.21 73.9523 344.65V326.77C73.9523 326.19 73.6823 325.9 73.1423 325.9H71.6123V325.39H79.2923C81.2323 325.39 82.7423 325.63 83.8223 326.11C84.9223 326.59 85.6923 327.24 86.1323 328.06C86.5923 328.86 86.8223 329.77 86.8223 330.79C86.8223 331.69 86.5823 332.53 86.1023 333.31C85.6223 334.09 84.8523 334.72 83.7923 335.2C82.7323 335.68 81.3323 335.92 79.5923 335.92C78.5523 335.92 77.6023 335.87 76.7423 335.77C75.9023 335.67 75.1523 335.55 74.4923 335.41V345.46H78.0023V346H71.6123ZM79.5923 335.41C81.2323 335.41 82.5323 335.2 83.4923 334.78C84.4723 334.34 85.1823 333.77 85.6223 333.07C86.0623 332.35 86.2823 331.59 86.2823 330.79C86.2823 329.87 86.0823 329.05 85.6823 328.33C85.2823 327.59 84.5723 327 83.5523 326.56C82.5523 326.12 81.1323 325.9 79.2923 325.9H74.4923V334.9C75.1323 335.02 75.8723 335.14 76.7123 335.26C77.5723 335.36 78.5323 335.41 79.5923 335.41ZM89.2197 346V345.49H90.7197C91.2797 345.49 91.5597 345.21 91.5597 344.65V326.77C91.5597 326.19 91.2897 325.9 90.7497 325.9H89.2197V325.39H96.8997C98.8397 325.39 100.35 325.63 101.43 326.11C102.53 326.59 103.3 327.24 103.74 328.06C104.2 328.86 104.43 329.77 104.43 330.79C104.43 331.65 104.21 332.46 103.77 333.22C103.33 333.96 102.63 334.58 101.67 335.08C100.73 335.56 99.4897 335.83 97.9497 335.89L103.59 345.49H105.9V346H100.59V345.49H102.96L97.3197 335.92H97.1997C96.1597 335.92 95.2097 335.87 94.3497 335.77C93.5097 335.67 92.7597 335.55 92.0997 335.41V345.46H95.6097V346H89.2197ZM97.1997 335.41C98.8397 335.41 100.14 335.2 101.1 334.78C102.08 334.34 102.79 333.77 103.23 333.07C103.67 332.35 103.89 331.59 103.89 330.79C103.89 329.87 103.69 329.05 103.29 328.33C102.89 327.59 102.18 327 101.16 326.56C100.16 326.12 98.7397 325.9 96.8997 325.9H92.0997V334.9C92.7397 335.02 93.4797 335.14 94.3197 335.26C95.1797 335.36 96.1397 335.41 97.1997 335.41ZM118.279 346.51C116.259 346.51 114.469 346.05 112.909 345.13C111.369 344.21 110.159 342.93 109.279 341.29C108.399 339.65 107.959 337.75 107.959 335.59C107.959 333.49 108.399 331.64 109.279 330.04C110.159 328.42 111.369 327.16 112.909 326.26C114.469 325.34 116.259 324.88 118.279 324.88C120.279 324.88 122.049 325.34 123.589 326.26C125.129 327.16 126.329 328.42 127.189 330.04C128.069 331.64 128.509 333.49 128.509 335.59C128.509 337.75 128.069 339.65 127.189 341.29C126.329 342.93 125.129 344.21 123.589 345.13C122.049 346.05 120.279 346.51 118.279 346.51ZM118.279 346C120.179 345.98 121.859 345.53 123.319 344.65C124.779 343.77 125.919 342.55 126.739 340.99C127.559 339.43 127.969 337.63 127.969 335.59C127.969 333.59 127.559 331.83 126.739 330.31C125.919 328.77 124.779 327.57 123.319 326.71C121.859 325.83 120.179 325.39 118.279 325.39C116.379 325.39 114.689 325.83 113.209 326.71C111.729 327.57 110.569 328.77 109.729 330.31C108.909 331.83 108.499 333.59 108.499 335.59C108.499 337.63 108.909 339.43 109.729 340.99C110.569 342.55 111.729 343.77 113.209 344.65C114.689 345.53 116.379 345.98 118.279 346ZM139.691 346.51C138.651 346.51 137.681 346.28 136.781 345.82C135.901 345.34 135.191 344.69 134.651 343.87C134.111 343.05 133.811 342.12 133.751 341.08C133.731 340.56 133.741 340.16 133.781 339.88C133.841 339.58 133.991 339.39 134.231 339.31C134.451 339.23 134.641 339.25 134.801 339.37C134.981 339.49 135.051 339.68 135.011 339.94C134.991 340.16 134.911 340.3 134.771 340.36C134.651 340.42 134.541 340.49 134.441 340.57C134.341 340.63 134.291 340.78 134.291 341.02C134.331 341.96 134.591 342.81 135.071 343.57C135.571 344.31 136.221 344.9 137.021 345.34C137.821 345.76 138.711 345.98 139.691 346C140.931 346 142.001 345.76 142.901 345.28C143.821 344.8 144.531 343.97 145.031 342.79C145.531 341.59 145.781 339.95 145.781 337.87V325.9H141.281V325.39H150.011V325.9H147.161C146.841 325.9 146.621 325.97 146.501 326.11C146.381 326.25 146.321 326.47 146.321 326.77V337.87C146.321 340.03 146.051 341.74 145.511 343C144.971 344.26 144.201 345.16 143.201 345.7C142.221 346.24 141.051 346.51 139.691 346.51ZM151.626 346V345.49H152.946C153.506 345.49 153.786 345.2 153.786 344.62V326.77C153.786 326.19 153.516 325.9 152.976 325.9H151.446V325.39H165.516V327.88H164.976V325.9H154.326V334.54H162.426V332.92H162.966V336.67H162.426V335.05H154.326V345.49H164.976V343.78H165.516V346H151.626ZM178.396 346.51C176.376 346.51 174.586 346.04 173.026 345.1C171.486 344.16 170.276 342.87 169.396 341.23C168.516 339.57 168.076 337.69 168.076 335.59C168.076 334.01 168.356 332.57 168.916 331.27C169.476 329.95 170.236 328.82 171.196 327.88C172.156 326.92 173.256 326.18 174.496 325.66C175.736 325.14 177.036 324.88 178.396 324.88C179.956 324.88 181.396 325.17 182.716 325.75C184.036 326.31 185.026 327.1 185.686 328.12C185.966 328.56 186.136 328.92 186.196 329.2C186.256 329.48 186.236 329.7 186.136 329.86C185.996 330.1 185.776 330.19 185.476 330.13C185.196 330.05 185.056 329.85 185.056 329.53C185.056 329.37 185.096 329.24 185.176 329.14C185.256 329.04 185.306 328.93 185.326 328.81C185.366 328.69 185.306 328.52 185.146 328.3C184.526 327.38 183.606 326.67 182.386 326.17C181.166 325.65 179.836 325.39 178.396 325.39C177.116 325.39 175.886 325.64 174.706 326.14C173.546 326.64 172.506 327.34 171.586 328.24C170.666 329.14 169.936 330.22 169.396 331.48C168.876 332.72 168.616 334.09 168.616 335.59C168.616 337.59 169.026 339.37 169.846 340.93C170.686 342.49 171.846 343.72 173.326 344.62C174.806 345.52 176.496 345.98 178.396 346C179.876 346.02 181.226 345.75 182.446 345.19C183.666 344.63 184.706 343.86 185.566 342.88L185.986 343.24C185.066 344.28 183.956 345.09 182.656 345.67C181.376 346.23 179.956 346.51 178.396 346.51ZM194.969 346V345.49H197.159C197.479 345.49 197.699 345.42 197.819 345.28C197.939 345.14 197.999 344.92 197.999 344.62V325.9H189.779V327.88H189.239V325.39H207.299V327.88H206.759V325.9H199.379C199.059 325.9 198.839 325.97 198.719 326.11C198.599 326.25 198.539 326.47 198.539 326.77V345.49H201.329V346H194.969ZM216.596 346.51C215.456 346.51 214.386 346.3 213.386 345.88C212.406 345.46 211.586 344.86 210.926 344.08C210.286 343.28 209.886 342.33 209.726 341.23C209.666 340.83 209.666 340.52 209.726 340.3C209.786 340.08 209.866 339.93 209.966 339.85C210.166 339.67 210.396 339.65 210.656 339.79C210.936 339.91 211.016 340.14 210.896 340.48C210.836 340.64 210.746 340.75 210.626 340.81C210.526 340.87 210.436 340.95 210.356 341.05C210.296 341.15 210.296 341.35 210.356 341.65C210.536 342.57 210.926 343.36 211.526 344.02C212.146 344.66 212.896 345.15 213.776 345.49C214.676 345.81 215.616 345.98 216.596 346C217.756 346 218.786 345.8 219.686 345.4C220.586 344.98 221.296 344.4 221.816 343.66C222.336 342.9 222.586 342.02 222.566 341.02C222.546 339.96 222.166 339.02 221.426 338.2C220.706 337.38 219.736 336.68 218.516 336.1C217.956 335.82 217.386 335.56 216.806 335.32C216.226 335.06 215.616 334.8 214.976 334.54C214.596 334.38 214.156 334.18 213.656 333.94C213.156 333.7 212.666 333.4 212.186 333.04C211.706 332.66 211.296 332.21 210.956 331.69C210.636 331.15 210.466 330.51 210.446 329.77C210.406 328.37 210.886 327.21 211.886 326.29C212.906 325.35 214.326 324.88 216.146 324.88C217.626 324.88 218.876 325.21 219.896 325.87C220.936 326.53 221.646 327.41 222.026 328.51C222.186 329.01 222.246 329.4 222.206 329.68C222.166 329.96 222.086 330.15 221.966 330.25C221.766 330.41 221.546 330.43 221.306 330.31C221.066 330.17 220.976 329.95 221.036 329.65C221.096 329.49 221.176 329.38 221.276 329.32C221.396 329.24 221.486 329.15 221.546 329.05C221.606 328.95 221.586 328.77 221.486 328.51C221.146 327.59 220.506 326.84 219.566 326.26C218.646 325.68 217.506 325.39 216.146 325.39C214.506 325.39 213.226 325.8 212.306 326.62C211.386 327.42 210.936 328.47 210.956 329.77C210.976 330.43 211.136 331 211.436 331.48C211.756 331.94 212.136 332.34 212.576 332.68C213.036 333 213.496 333.27 213.956 333.49C214.416 333.71 214.796 333.89 215.096 334.03C215.736 334.33 216.326 334.59 216.866 334.81C217.406 335.01 217.956 335.25 218.516 335.53C219.936 336.21 221.056 337.01 221.876 337.93C222.696 338.85 223.096 339.88 223.076 341.02C223.076 342.14 222.786 343.12 222.206 343.96C221.646 344.78 220.876 345.41 219.896 345.85C218.936 346.29 217.836 346.51 216.596 346.51Z" fill="#F2F2F2"/>
<defs>
<filter id="filter0_dii_21_1003" x="-0.10791" y="0.102875" width="314.728" height="401.297" filterUnits="userSpaceOnUse" color-interpolation-filters="sRGB">
<feFlood flood-opacity="0" result="BackgroundImageFix"/>
<feColorMatrix in="SourceAlpha" type="matrix" values="0 0 0 0 0 0 0 0 0 0 0 0 0 0 0 0 0 0 127 0" result="hardAlpha"/>
<feOffset dx="10" dy="3"/>
<feGaussianBlur stdDeviation="5"/>
<feColorMatrix type="matrix" values="0 0 0 0 0.74902 0 0 0 0 0.717647 0 0 0 0 0.690196 0 0 0 1 0"/>
<feBlend mode="normal" in2="BackgroundImageFix" result="effect1_dropShadow_21_1003"/>
<feBlend mode="normal" in="SourceGraphic" in2="effect1_dropShadow_21_1003" result="shape"/>
<feColorMatrix in="SourceAlpha" type="matrix" values="0 0 0 0 0 0 0 0 0 0 0 0 0 0 0 0 0 0 127 0" result="hardAlpha"/>
<feOffset dx="1" dy="1"/>
<feGaussianBlur stdDeviation="5"/>
<feComposite in2="hardAlpha" operator="arithmetic" k2="-1" k3="1"/>
<feColorMatrix type="matrix" values="0 0 0 0 0 0 0 0 0 0 0 0 0 0 0 0 0 0 0.5 0"/>
<feBlend mode="normal" in2="shape" result="effect2_innerShadow_21_1003"/>
<feColorMatrix in="SourceAlpha" type="matrix" values="0 0 0 0 0 0 0 0 0 0 0 0 0 0 0 0 0 0 127 0" result="hardAlpha"/>
<feOffset dx="-1" dy="-1"/>
<feGaussianBlur stdDeviation="5"/>
<feComposite in2="hardAlpha" operator="arithmetic" k2="-1" k3="1"/>
<feColorMatrix type="matrix" values="0 0 0 0 0 0 0 0 0 0 0 0 0 0 0 0 0 0 0.3 0"/>
<feBlend mode="normal" in2="effect2_innerShadow_21_1003" result="effect3_innerShadow_21_1003"/>
</filter>
<filter id="filter1_ii_21_1003" x="10.147" y="16.3578" width="275.218" height="362.787" filterUnits="userSpaceOnUse" color-interpolation-filters="sRGB">
<feFlood flood-opacity="0" result="BackgroundImageFix"/>
<feBlend mode="normal" in="SourceGraphic" in2="BackgroundImageFix" result="shape"/>
<feColorMatrix in="SourceAlpha" type="matrix" values="0 0 0 0 0 0 0 0 0 0 0 0 0 0 0 0 0 0 127 0" result="hardAlpha"/>
<feOffset dx="3" dy="3"/>
<feComposite in2="hardAlpha" operator="arithmetic" k2="-1" k3="1"/>
<feColorMatrix type="matrix" values="0 0 0 0 0 0 0 0 0 0 0 0 0 0 0 0 0 0 0.1 0"/>
<feBlend mode="normal" in2="shape" result="effect1_innerShadow_21_1003"/>
<feColorMatrix in="SourceAlpha" type="matrix" values="0 0 0 0 0 0 0 0 0 0 0 0 0 0 0 0 0 0 127 0" result="hardAlpha"/>
<feOffset dx="-3" dy="-3"/>
<feComposite in2="hardAlpha" operator="arithmetic" k2="-1" k3="1"/>
<feColorMatrix type="matrix" values="0 0 0 0 0 0 0 0 0 0 0 0 0 0 0 0 0 0 0.1 0"/>
<feBlend mode="normal" in2="effect1_innerShadow_21_1003" result="effect2_innerShadow_21_1003"/>
</filter>
<linearGradient id="paint0_linear_21_1003" x1="3.89209" y1="197.271" x2="291.62" y2="197.271" gradientUnits="userSpaceOnUse">
<stop stop-color="#8B5E35"/>
<stop offset="1" stop-color="#734924"/>
</linearGradient>
<linearGradient id="paint1_linear_21_1003" x1="4.53148" y1="197.271" x2="291.62" y2="197.271" gradientUnits="userSpaceOnUse">
<stop stop-color="#8B5E35"/>
<stop offset="1" stop-color="#734924"/>
</linearGradient>
</defs>
</svg>
